<svg width="60" height="105" viewBox="0 0 60 105" fill="none" xmlns="http://www.w3.org/2000/svg">
<path fill-rule="evenodd" clip-rule="evenodd" d="M29.9775 54.2075L12.6175 49.3875L7.5 6H52.5L47.385 49.3825L29.9775 54.2075ZM17.6175 25.64L18.095 30.96H36.5375L35.92 37.86L29.985 39.465H29.98L24.055 37.865L23.675 33.6225H18.3325L19.0775 41.9775L29.9775 45.0025L40.895 41.9775L42.225 27.0675L42.355 25.64L43.315 14.8675H16.66L17.145 20.19H37.485L37 25.64H17.6175V25.64Z" fill="#757575"/>
<path d="M16.96 100.2C15.72 100.2 14.6667 99.9867 13.8 99.56C12.9467 99.12 12.2933 98.5 11.84 97.7C11.3867 96.8867 11.1333 95.9133 11.08 94.78C11.0667 94.2333 11.06 93.6467 11.06 93.02C11.06 92.3933 11.0667 91.7933 11.08 91.22C11.1333 90.1 11.3867 89.1333 11.84 88.32C12.3067 87.5067 12.9667 86.8867 13.82 86.46C14.6867 86.02 15.7333 85.8 16.96 85.8C17.8667 85.8 18.68 85.92 19.4 86.16C20.12 86.4 20.7333 86.7333 21.24 87.16C21.7467 87.5733 22.14 88.06 22.42 88.62C22.7 89.18 22.8467 89.7867 22.86 90.44C22.8733 90.56 22.8333 90.66 22.74 90.74C22.66 90.82 22.56 90.86 22.44 90.86H20.54C20.3933 90.86 20.2733 90.8267 20.18 90.76C20.0867 90.68 20.02 90.5533 19.98 90.38C19.7667 89.5 19.4 88.9 18.88 88.58C18.36 88.26 17.7133 88.1 16.94 88.1C16.0467 88.1 15.3333 88.3533 14.8 88.86C14.2667 89.3533 13.98 90.1733 13.94 91.32C13.9 92.4133 13.9 93.5333 13.94 94.68C13.98 95.8267 14.2667 96.6533 14.8 97.16C15.3333 97.6533 16.0467 97.9 16.94 97.9C17.7133 97.9 18.36 97.74 18.88 97.42C19.4 97.0867 19.7667 96.4867 19.98 95.62C20.02 95.4333 20.0867 95.3067 20.18 95.24C20.2733 95.1733 20.3933 95.14 20.54 95.14H22.44C22.56 95.14 22.66 95.18 22.74 95.26C22.8333 95.34 22.8733 95.44 22.86 95.56C22.8467 96.2133 22.7 96.82 22.42 97.38C22.14 97.94 21.7467 98.4333 21.24 98.86C20.7333 99.2733 20.12 99.6 19.4 99.84C18.68 100.08 17.8667 100.2 16.96 100.2ZM30.0919 100.2C28.8519 100.2 27.8119 100.02 26.9719 99.66C26.1452 99.2867 25.5119 98.8067 25.0719 98.22C24.6452 97.62 24.4185 96.9933 24.3919 96.34C24.3919 96.22 24.4319 96.12 24.5119 96.04C24.5919 95.96 24.6919 95.92 24.8119 95.92H26.5919C26.7652 95.92 26.8919 95.96 26.9719 96.04C27.0652 96.1067 27.1452 96.1933 27.2119 96.3C27.2919 96.5533 27.4452 96.8067 27.6719 97.06C27.8985 97.3 28.2052 97.5 28.5919 97.66C28.9919 97.82 29.4919 97.9 30.0919 97.9C31.0519 97.9 31.7652 97.74 32.2319 97.42C32.7119 97.1 32.9519 96.6667 32.9519 96.12C32.9519 95.7333 32.8252 95.4267 32.5719 95.2C32.3185 94.96 31.9252 94.7467 31.3919 94.56C30.8719 94.36 30.1785 94.1533 29.3119 93.94C28.3119 93.7 27.4719 93.4133 26.7919 93.08C26.1252 92.7333 25.6185 92.3 25.2719 91.78C24.9385 91.26 24.7719 90.6 24.7719 89.8C24.7719 89.0267 24.9785 88.34 25.3919 87.74C25.8185 87.14 26.4185 86.6667 27.1919 86.32C27.9785 85.9733 28.9119 85.8 29.9919 85.8C30.8585 85.8 31.6252 85.92 32.2919 86.16C32.9585 86.3867 33.5119 86.6933 33.9519 87.08C34.3919 87.4533 34.7252 87.86 34.9519 88.3C35.1919 88.7267 35.3185 89.1467 35.3319 89.56C35.3319 89.6667 35.2919 89.7667 35.2119 89.86C35.1452 89.94 35.0452 89.98 34.9119 89.98H33.0519C32.9452 89.98 32.8385 89.9533 32.7319 89.9C32.6252 89.8467 32.5385 89.7467 32.4719 89.6C32.3919 89.1867 32.1319 88.8333 31.6919 88.54C31.2519 88.2467 30.6852 88.1 29.9919 88.1C29.2719 88.1 28.6919 88.2333 28.2519 88.5C27.8119 88.7667 27.5919 89.18 27.5919 89.74C27.5919 90.1133 27.6985 90.4267 27.9119 90.68C28.1385 90.92 28.4919 91.1333 28.9719 91.32C29.4652 91.5067 30.1119 91.7067 30.9119 91.92C32.0452 92.1733 32.9719 92.4667 33.6919 92.8C34.4119 93.1333 34.9385 93.56 35.2719 94.08C35.6052 94.5867 35.7719 95.2333 35.7719 96.02C35.7719 96.9 35.5319 97.6533 35.0519 98.28C34.5852 98.8933 33.9252 99.3667 33.0719 99.7C32.2185 100.033 31.2252 100.2 30.0919 100.2ZM42.9239 100.2C41.6839 100.2 40.6439 100.02 39.8039 99.66C38.9772 99.2867 38.3439 98.8067 37.9039 98.22C37.4772 97.62 37.2506 96.9933 37.2239 96.34C37.2239 96.22 37.2639 96.12 37.3439 96.04C37.4239 95.96 37.5239 95.92 37.6439 95.92H39.4239C39.5972 95.92 39.7239 95.96 39.8039 96.04C39.8972 96.1067 39.9772 96.1933 40.0439 96.3C40.1239 96.5533 40.2772 96.8067 40.5039 97.06C40.7306 97.3 41.0372 97.5 41.4239 97.66C41.8239 97.82 42.3239 97.9 42.9239 97.9C43.8839 97.9 44.5972 97.74 45.0639 97.42C45.5439 97.1 45.7839 96.6667 45.7839 96.12C45.7839 95.7333 45.6572 95.4267 45.4039 95.2C45.1506 94.96 44.7572 94.7467 44.2239 94.56C43.7039 94.36 43.0106 94.1533 42.1439 93.94C41.1439 93.7 40.3039 93.4133 39.6239 93.08C38.9572 92.7333 38.4506 92.3 38.1039 91.78C37.7706 91.26 37.6039 90.6 37.6039 89.8C37.6039 89.0267 37.8106 88.34 38.2239 87.74C38.6506 87.14 39.2506 86.6667 40.0239 86.32C40.8106 85.9733 41.7439 85.8 42.8239 85.8C43.6906 85.8 44.4572 85.92 45.1239 86.16C45.7906 86.3867 46.3439 86.6933 46.7839 87.08C47.2239 87.4533 47.5572 87.86 47.7839 88.3C48.0239 88.7267 48.1506 89.1467 48.1639 89.56C48.1639 89.6667 48.1239 89.7667 48.0439 89.86C47.9772 89.94 47.8772 89.98 47.7439 89.98H45.8839C45.7772 89.98 45.6706 89.9533 45.5639 89.9C45.4572 89.8467 45.3706 89.7467 45.3039 89.6C45.2239 89.1867 44.9639 88.8333 44.5239 88.54C44.0839 88.2467 43.5172 88.1 42.8239 88.1C42.1039 88.1 41.5239 88.2333 41.0839 88.5C40.6439 88.7667 40.4239 89.18 40.4239 89.74C40.4239 90.1133 40.5306 90.4267 40.7439 90.68C40.9706 90.92 41.3239 91.1333 41.8039 91.32C42.2972 91.5067 42.9439 91.7067 43.7439 91.92C44.8772 92.1733 45.8039 92.4667 46.5239 92.8C47.2439 93.1333 47.7706 93.56 48.1039 94.08C48.4372 94.5867 48.6039 95.2333 48.6039 96.02C48.6039 96.9 48.3639 97.6533 47.8839 98.28C47.4172 98.8933 46.7572 99.3667 45.9039 99.7C45.0506 100.033 44.0572 100.2 42.9239 100.2Z" fill="#757575"/>
</svg>
