<svg width="60" height="105" viewBox="0 0 60 105" fill="none" xmlns="http://www.w3.org/2000/svg">
<path fill-rule="evenodd" clip-rule="evenodd" d="M12.615 49.3875L7.5 6H52.5L47.3825 49.3825L29.975 54.2075L12.615 49.3875ZM22.9575 25.6375L22.4725 20.1875H42.835L43.31 14.8675H16.66L18.095 30.96H36.5375L35.92 37.86L29.985 39.465H29.98L24.055 37.865L23.675 33.6225H18.33L19.075 41.9775L29.975 45.0025L40.8925 41.9775L42.2225 27.0675L42.3525 25.64H22.9575V25.6375Z" fill="#757575"/>
<path d="M7.04 100C6.90667 100 6.79333 99.96 6.7 99.88C6.60667 99.7867 6.56 99.6667 6.56 99.52V86.5C6.56 86.3533 6.60667 86.2333 6.7 86.14C6.79333 86.0467 6.90667 86 7.04 86H8.86C9.00667 86 9.12 86.0467 9.2 86.14C9.29333 86.2333 9.34 86.3533 9.34 86.5V91.66H15.24V86.5C15.24 86.3533 15.2867 86.2333 15.38 86.14C15.4733 86.0467 15.5867 86 15.72 86H17.52C17.6667 86 17.7867 86.0467 17.88 86.14C17.9733 86.2333 18.02 86.3533 18.02 86.5V99.52C18.02 99.6533 17.9733 99.7667 17.88 99.86C17.7867 99.9533 17.6667 100 17.52 100H15.72C15.5867 100 15.4733 99.9533 15.38 99.86C15.2867 99.7667 15.24 99.6533 15.24 99.52V94.16H9.34V99.52C9.34 99.6533 9.29333 99.7667 9.2 99.86C9.12 99.9533 9.00667 100 8.86 100H7.04ZM24.6903 100C24.557 100 24.4436 99.9533 24.3503 99.86C24.257 99.7667 24.2103 99.6533 24.2103 99.52V88.46H20.5103C20.377 88.46 20.2636 88.4133 20.1703 88.32C20.077 88.2267 20.0303 88.1133 20.0303 87.98V86.5C20.0303 86.3533 20.077 86.2333 20.1703 86.14C20.2636 86.0467 20.377 86 20.5103 86H30.7103C30.857 86 30.977 86.0467 31.0703 86.14C31.1636 86.2333 31.2103 86.3533 31.2103 86.5V87.98C31.2103 88.1133 31.1636 88.2267 31.0703 88.32C30.977 88.4133 30.857 88.46 30.7103 88.46H27.0303V99.52C27.0303 99.6533 26.9836 99.7667 26.8903 99.86C26.797 99.9533 26.677 100 26.5303 100H24.6903ZM33.7397 100C33.593 100 33.473 99.9533 33.3797 99.86C33.2864 99.7667 33.2397 99.6533 33.2397 99.52V86.5C33.2397 86.3533 33.2864 86.2333 33.3797 86.14C33.473 86.0467 33.593 86 33.7397 86H35.3197C35.5064 86 35.6464 86.0533 35.7397 86.16C35.833 86.2533 35.893 86.3267 35.9197 86.38L39.7797 93.58L43.6797 86.38C43.7064 86.3267 43.7664 86.2533 43.8597 86.16C43.953 86.0533 44.093 86 44.2797 86H45.8397C45.9864 86 46.1064 86.0467 46.1997 86.14C46.293 86.2333 46.3397 86.3533 46.3397 86.5V99.52C46.3397 99.6533 46.293 99.7667 46.1997 99.86C46.1064 99.9533 45.9864 100 45.8397 100H44.1597C44.013 100 43.893 99.9533 43.7997 99.86C43.7197 99.7667 43.6797 99.6533 43.6797 99.52V90.86L40.8797 96.2C40.813 96.32 40.7264 96.4267 40.6197 96.52C40.513 96.6 40.373 96.64 40.1997 96.64H39.3797C39.193 96.64 39.0464 96.6 38.9397 96.52C38.8464 96.4267 38.7664 96.32 38.6997 96.2L35.8997 90.86V99.52C35.8997 99.6533 35.853 99.7667 35.7597 99.86C35.6664 99.9533 35.553 100 35.4197 100H33.7397ZM49.9306 100C49.7973 100 49.684 99.9533 49.5906 99.86C49.4973 99.7667 49.4506 99.6533 49.4506 99.52V86.48C49.4506 86.3467 49.4973 86.2333 49.5906 86.14C49.684 86.0467 49.7973 86 49.9306 86H51.7906C51.924 86 52.0373 86.0467 52.1306 86.14C52.224 86.2333 52.2706 86.3467 52.2706 86.48V97.62H58.6106C58.7573 97.62 58.8773 97.6667 58.9706 97.76C59.064 97.8533 59.1106 97.9733 59.1106 98.12V99.52C59.1106 99.6533 59.064 99.7667 58.9706 99.86C58.8773 99.9533 58.7573 100 58.6106 100H49.9306Z" fill="#757575"/>
</svg>
