<svg width="104" height="105" viewBox="0 0 104 105" fill="none" xmlns="http://www.w3.org/2000/svg">
<path d="M25.75 4V56.5H78.25V4H25.75ZM54.3213 44.9444C54.3213 50.0537 51.3213 52.3862 46.9506 52.3862C43.0019 52.3862 40.7163 50.3481 39.5444 47.875L43.5644 45.4488C44.3388 46.8194 45.0419 47.98 46.7406 47.98C48.3569 47.98 49.3881 47.3462 49.3881 44.875V28.105H54.3213V44.9444ZM65.9912 52.3862C61.4087 52.3862 58.4444 50.2075 57.0025 47.3463L61.0225 45.0269C62.0781 46.75 63.46 48.0269 65.8863 48.0269C67.9244 48.0269 69.2388 47.0069 69.2388 45.5894C69.2388 43.9019 67.9019 43.3037 65.6406 42.3081L64.4106 41.7812C60.8481 40.27 58.4931 38.3594 58.4931 34.3394C58.4931 30.6362 61.3169 27.8238 65.7119 27.8238C68.8525 27.8238 71.1025 28.9131 72.7206 31.7725L68.8769 34.2344C68.0331 32.7231 67.1181 32.125 65.7006 32.125C64.2606 32.125 63.3456 33.04 63.3456 34.2344C63.3456 35.7119 64.2606 36.3081 66.3813 37.2344L67.6113 37.7613C71.8075 39.5538 74.1625 41.395 74.1625 45.5181C74.1625 49.9487 70.6694 52.3844 65.9931 52.3844L65.9912 52.3862Z" fill="#757575"/>
<path d="M6.08 100.2C5.36 100.2 4.67333 100.113 4.02 99.94C3.38 99.7533 2.80667 99.4733 2.3 99.1C1.79333 98.7267 1.38667 98.2667 1.08 97.72C0.786667 97.1733 0.633333 96.5267 0.62 95.78C0.62 95.66 0.66 95.56 0.74 95.48C0.82 95.3867 0.92 95.34 1.04 95.34H2.94C3.11333 95.34 3.24 95.3867 3.32 95.48C3.41333 95.5733 3.48667 95.7 3.54 95.86C3.60667 96.34 3.76 96.7333 4 97.04C4.24 97.3333 4.54 97.5533 4.9 97.7C5.27333 97.8333 5.68667 97.9 6.14 97.9C6.98 97.9 7.62 97.6267 8.06 97.08C8.51333 96.5333 8.74 95.7733 8.74 94.8V88.36H1.96C1.81333 88.36 1.69333 88.3133 1.6 88.22C1.52 88.1267 1.48 88.0133 1.48 87.88V86.48C1.48 86.3467 1.52 86.2333 1.6 86.14C1.69333 86.0467 1.81333 86 1.96 86H11.1C11.2467 86 11.3667 86.0467 11.46 86.14C11.5533 86.2333 11.6 86.3533 11.6 86.5V94.88C11.6 95.9867 11.3667 96.94 10.9 97.74C10.4467 98.54 9.80667 99.1533 8.98 99.58C8.16667 99.9933 7.2 100.2 6.08 100.2ZM17.3283 100.2C16.6349 100.2 16.0083 100.067 15.4483 99.8C14.8883 99.52 14.4416 99.1533 14.1083 98.7C13.7883 98.2333 13.6283 97.7133 13.6283 97.14C13.6283 96.2067 14.0016 95.4667 14.7483 94.92C15.5083 94.36 16.5083 93.9867 17.7483 93.8L20.4883 93.4V92.98C20.4883 92.42 20.3483 91.9867 20.0683 91.68C19.7883 91.3733 19.3083 91.22 18.6283 91.22C18.1483 91.22 17.7549 91.32 17.4483 91.52C17.1549 91.7067 16.9349 91.96 16.7883 92.28C16.6816 92.4533 16.5283 92.54 16.3283 92.54H14.7483C14.6016 92.54 14.4883 92.5 14.4083 92.42C14.3416 92.34 14.3083 92.2333 14.3083 92.1C14.3216 91.8867 14.4083 91.6267 14.5683 91.32C14.7283 91.0133 14.9816 90.72 15.3283 90.44C15.6749 90.1467 16.1216 89.9 16.6683 89.7C17.2149 89.5 17.8749 89.4 18.6483 89.4C19.4883 89.4 20.1949 89.5067 20.7683 89.72C21.3549 89.92 21.8216 90.1933 22.1683 90.54C22.5149 90.8867 22.7683 91.2933 22.9283 91.76C23.0883 92.2267 23.1683 92.72 23.1683 93.24V99.52C23.1683 99.6533 23.1216 99.7667 23.0283 99.86C22.9349 99.9533 22.8216 100 22.6883 100H21.0683C20.9216 100 20.8016 99.9533 20.7083 99.86C20.6283 99.7667 20.5883 99.6533 20.5883 99.52V98.74C20.4149 98.9933 20.1816 99.2333 19.8883 99.46C19.5949 99.6733 19.2349 99.8533 18.8083 100C18.3949 100.133 17.9016 100.2 17.3283 100.2ZM18.0083 98.3C18.4749 98.3 18.8949 98.2 19.2683 98C19.6549 97.8 19.9549 97.4933 20.1683 97.08C20.3949 96.6533 20.5083 96.12 20.5083 95.48V95.06L18.5083 95.38C17.7216 95.5 17.1349 95.6933 16.7483 95.96C16.3616 96.2267 16.1683 96.5533 16.1683 96.94C16.1683 97.2333 16.2549 97.4867 16.4283 97.7C16.6149 97.9 16.8483 98.0533 17.1283 98.16C17.4083 98.2533 17.7016 98.3 18.0083 98.3ZM29.1602 100C28.9468 100 28.7868 99.9533 28.6802 99.86C28.5868 99.7533 28.5068 99.6333 28.4402 99.5L24.7002 90.22C24.6735 90.1533 24.6602 90.0933 24.6602 90.04C24.6602 89.92 24.7002 89.82 24.7802 89.74C24.8735 89.6467 24.9802 89.6 25.1002 89.6H26.7202C26.8802 89.6 27.0002 89.6467 27.0802 89.74C27.1602 89.82 27.2135 89.9 27.2402 89.98L29.9002 97L32.5602 89.98C32.5868 89.9 32.6402 89.82 32.7202 89.74C32.8002 89.6467 32.9202 89.6 33.0802 89.6H34.7202C34.8268 89.6 34.9202 89.6467 35.0002 89.74C35.0935 89.82 35.1402 89.92 35.1402 90.04C35.1402 90.0933 35.1335 90.1533 35.1202 90.22L31.3602 99.5C31.3068 99.6333 31.2268 99.7533 31.1202 99.86C31.0135 99.9533 30.8535 100 30.6402 100H29.1602ZM39.5744 100.2C38.881 100.2 38.2544 100.067 37.6944 99.8C37.1344 99.52 36.6877 99.1533 36.3544 98.7C36.0344 98.2333 35.8744 97.7133 35.8744 97.14C35.8744 96.2067 36.2477 95.4667 36.9944 94.92C37.7544 94.36 38.7544 93.9867 39.9944 93.8L42.7344 93.4V92.98C42.7344 92.42 42.5944 91.9867 42.3144 91.68C42.0344 91.3733 41.5544 91.22 40.8744 91.22C40.3944 91.22 40.001 91.32 39.6944 91.52C39.401 91.7067 39.181 91.96 39.0344 92.28C38.9277 92.4533 38.7744 92.54 38.5744 92.54H36.9944C36.8477 92.54 36.7344 92.5 36.6544 92.42C36.5877 92.34 36.5544 92.2333 36.5544 92.1C36.5677 91.8867 36.6544 91.6267 36.8144 91.32C36.9744 91.0133 37.2277 90.72 37.5744 90.44C37.921 90.1467 38.3677 89.9 38.9144 89.7C39.461 89.5 40.121 89.4 40.8944 89.4C41.7344 89.4 42.441 89.5067 43.0144 89.72C43.601 89.92 44.0677 90.1933 44.4144 90.54C44.761 90.8867 45.0144 91.2933 45.1744 91.76C45.3344 92.2267 45.4144 92.72 45.4144 93.24V99.52C45.4144 99.6533 45.3677 99.7667 45.2744 99.86C45.181 99.9533 45.0677 100 44.9344 100H43.3144C43.1677 100 43.0477 99.9533 42.9544 99.86C42.8744 99.7667 42.8344 99.6533 42.8344 99.52V98.74C42.661 98.9933 42.4277 99.2333 42.1344 99.46C41.841 99.6733 41.481 99.8533 41.0544 100C40.641 100.133 40.1477 100.2 39.5744 100.2ZM40.2544 98.3C40.721 98.3 41.141 98.2 41.5144 98C41.901 97.8 42.201 97.4933 42.4144 97.08C42.641 96.6533 42.7544 96.12 42.7544 95.48V95.06L40.7544 95.38C39.9677 95.5 39.381 95.6933 38.9944 95.96C38.6077 96.2267 38.4144 96.5533 38.4144 96.94C38.4144 97.2333 38.501 97.4867 38.6744 97.7C38.861 97.9 39.0944 98.0533 39.3744 98.16C39.6544 98.2533 39.9477 98.3 40.2544 98.3ZM51.9202 100.2C51.1202 100.2 50.4335 100.107 49.8602 99.92C49.3002 99.7333 48.8402 99.5 48.4802 99.22C48.1202 98.94 47.8535 98.66 47.6802 98.38C47.5068 98.1 47.4135 97.8667 47.4002 97.68C47.3868 97.5333 47.4268 97.42 47.5202 97.34C47.6268 97.2467 47.7402 97.2 47.8602 97.2H49.4402C49.4935 97.2 49.5402 97.2067 49.5802 97.22C49.6202 97.2333 49.6735 97.2733 49.7402 97.34C49.9135 97.4867 50.0935 97.64 50.2802 97.8C50.4802 97.96 50.7135 98.1 50.9802 98.22C51.2468 98.3267 51.5802 98.38 51.9802 98.38C52.5002 98.38 52.9335 98.28 53.2802 98.08C53.6402 97.8667 53.8202 97.5667 53.8202 97.18C53.8202 96.9 53.7402 96.6733 53.5802 96.5C53.4335 96.3267 53.1535 96.1733 52.7402 96.04C52.3268 95.8933 51.7402 95.74 50.9802 95.58C50.2335 95.4067 49.6135 95.1867 49.1202 94.92C48.6268 94.6533 48.2602 94.32 48.0202 93.92C47.7802 93.52 47.6602 93.0533 47.6602 92.52C47.6602 92 47.8135 91.5067 48.1202 91.04C48.4402 90.56 48.9068 90.1667 49.5202 89.86C50.1468 89.5533 50.9202 89.4 51.8402 89.4C52.5602 89.4 53.1868 89.4933 53.7202 89.68C54.2535 89.8533 54.6935 90.0733 55.0402 90.34C55.4002 90.6067 55.6735 90.88 55.8602 91.16C56.0468 91.4267 56.1468 91.66 56.1602 91.86C56.1735 92.0067 56.1335 92.1267 56.0402 92.22C55.9468 92.3 55.8402 92.34 55.7202 92.34H54.2402C54.1735 92.34 54.1135 92.3267 54.0602 92.3C54.0068 92.2733 53.9535 92.24 53.9002 92.2C53.7535 92.0667 53.5935 91.9267 53.4202 91.78C53.2468 91.6333 53.0335 91.5067 52.7802 91.4C52.5402 91.28 52.2202 91.22 51.8202 91.22C51.3135 91.22 50.9268 91.3333 50.6602 91.56C50.3935 91.7733 50.2602 92.0467 50.2602 92.38C50.2602 92.6067 50.3202 92.8067 50.4402 92.98C50.5735 93.14 50.8335 93.2933 51.2202 93.44C51.6068 93.5867 52.1935 93.74 52.9802 93.9C53.8735 94.06 54.5802 94.3 55.1002 94.62C55.6335 94.9267 56.0068 95.2867 56.2202 95.7C56.4468 96.1 56.5602 96.5467 56.5602 97.04C56.5602 97.64 56.3802 98.18 56.0202 98.66C55.6735 99.14 55.1535 99.52 54.4602 99.8C53.7802 100.067 52.9335 100.2 51.9202 100.2ZM63.1247 100.2C62.1647 100.2 61.318 100.02 60.5847 99.66C59.8647 99.3 59.298 98.78 58.8847 98.1C58.4847 97.4067 58.2647 96.5733 58.2247 95.6C58.2114 95.4 58.2047 95.14 58.2047 94.82C58.2047 94.4867 58.2114 94.2133 58.2247 94C58.2647 93.0267 58.4847 92.2 58.8847 91.52C59.298 90.8267 59.8647 90.3 60.5847 89.94C61.318 89.58 62.1647 89.4 63.1247 89.4C63.978 89.4 64.7047 89.52 65.3047 89.76C65.9047 90 66.398 90.3 66.7847 90.66C67.1714 91.02 67.458 91.4 67.6447 91.8C67.8447 92.1867 67.9514 92.54 67.9647 92.86C67.978 93.0067 67.9314 93.1267 67.8247 93.22C67.7314 93.3 67.618 93.34 67.4847 93.34H65.7247C65.5914 93.34 65.4847 93.3067 65.4047 93.24C65.338 93.1733 65.2714 93.0733 65.2047 92.94C65.0047 92.4067 64.738 92.0333 64.4047 91.82C64.0847 91.5933 63.6714 91.48 63.1647 91.48C62.498 91.48 61.9647 91.6933 61.5647 92.12C61.178 92.5333 60.9714 93.1933 60.9447 94.1C60.918 94.6067 60.918 95.0733 60.9447 95.5C60.9714 96.42 61.178 97.0867 61.5647 97.5C61.9647 97.9133 62.498 98.12 63.1647 98.12C63.6847 98.12 64.1047 98.0133 64.4247 97.8C64.7447 97.5733 65.0047 97.1933 65.2047 96.66C65.2714 96.5267 65.338 96.4267 65.4047 96.36C65.4847 96.2933 65.5914 96.26 65.7247 96.26H67.4847C67.618 96.26 67.7314 96.3067 67.8247 96.4C67.9314 96.48 67.978 96.5933 67.9647 96.74C67.9514 96.98 67.8847 97.2533 67.7647 97.56C67.658 97.8533 67.478 98.16 67.2247 98.48C66.9847 98.7867 66.678 99.0733 66.3047 99.34C65.9314 99.5933 65.478 99.8 64.9447 99.96C64.4247 100.12 63.818 100.2 63.1247 100.2ZM70.5305 100C70.3971 100 70.2838 99.9533 70.1905 99.86C70.0971 99.7667 70.0505 99.6533 70.0505 99.52V90.1C70.0505 89.9533 70.0971 89.8333 70.1905 89.74C70.2838 89.6467 70.3971 89.6 70.5305 89.6H72.1505C72.2838 89.6 72.3971 89.6467 72.4905 89.74C72.5971 89.8333 72.6505 89.9533 72.6505 90.1V90.92C72.9571 90.4933 73.3505 90.1667 73.8305 89.94C74.3238 89.7133 74.8905 89.6 75.5305 89.6H76.3505C76.4971 89.6 76.6105 89.6467 76.6905 89.74C76.7838 89.8333 76.8305 89.9467 76.8305 90.08V91.52C76.8305 91.6533 76.7838 91.7667 76.6905 91.86C76.6105 91.9533 76.4971 92 76.3505 92H74.7905C74.1505 92 73.6505 92.18 73.2905 92.54C72.9438 92.9 72.7705 93.3933 72.7705 94.02V99.52C72.7705 99.6533 72.7238 99.7667 72.6305 99.86C72.5371 99.9533 72.4171 100 72.2705 100H70.5305ZM78.8703 100C78.737 100 78.6236 99.9533 78.5303 99.86C78.437 99.7667 78.3903 99.6533 78.3903 99.52V90.08C78.3903 89.9467 78.437 89.8333 78.5303 89.74C78.6236 89.6467 78.737 89.6 78.8703 89.6H80.5303C80.677 89.6 80.7903 89.6467 80.8703 89.74C80.9636 89.8333 81.0103 89.9467 81.0103 90.08V99.52C81.0103 99.6533 80.9636 99.7667 80.8703 99.86C80.7903 99.9533 80.677 100 80.5303 100H78.8703ZM78.7903 87.88C78.6436 87.88 78.5236 87.84 78.4303 87.76C78.3503 87.6667 78.3103 87.5467 78.3103 87.4V85.96C78.3103 85.8267 78.3503 85.7133 78.4303 85.62C78.5236 85.5267 78.6436 85.48 78.7903 85.48H80.6103C80.757 85.48 80.877 85.5267 80.9703 85.62C81.0636 85.7133 81.1103 85.8267 81.1103 85.96V87.4C81.1103 87.5467 81.0636 87.6667 80.9703 87.76C80.877 87.84 80.757 87.88 80.6103 87.88H78.7903ZM84.5739 103.8C84.4406 103.8 84.3272 103.753 84.2339 103.66C84.1406 103.567 84.0939 103.453 84.0939 103.32V90.08C84.0939 89.9467 84.1406 89.8333 84.2339 89.74C84.3272 89.6467 84.4406 89.6 84.5739 89.6H86.1539C86.3006 89.6 86.4139 89.6467 86.4939 89.74C86.5872 89.8333 86.6339 89.9467 86.6339 90.08V90.88C86.9539 90.4533 87.3739 90.1 87.8939 89.82C88.4139 89.54 89.0606 89.4 89.8339 89.4C90.5406 89.4 91.1539 89.5133 91.6739 89.74C92.1939 89.9667 92.6272 90.2933 92.9739 90.72C93.3206 91.1333 93.5872 91.6267 93.7739 92.2C93.9606 92.7733 94.0672 93.4067 94.0939 94.1C94.1072 94.3267 94.1139 94.56 94.1139 94.8C94.1139 95.04 94.1072 95.28 94.0939 95.52C94.0806 96.1867 93.9806 96.8067 93.7939 97.38C93.6072 97.94 93.3339 98.4333 92.9739 98.86C92.6272 99.2733 92.1939 99.6 91.6739 99.84C91.1539 100.08 90.5406 100.2 89.8339 100.2C89.1139 100.2 88.5006 100.073 87.9939 99.82C87.4872 99.5533 87.0739 99.2067 86.7539 98.78V103.32C86.7539 103.453 86.7072 103.567 86.6139 103.66C86.5339 103.753 86.4206 103.8 86.2739 103.8H84.5739ZM89.0939 98.06C89.6672 98.06 90.1139 97.94 90.4339 97.7C90.7539 97.4467 90.9806 97.12 91.1139 96.72C91.2606 96.32 91.3472 95.88 91.3739 95.4C91.4006 95 91.4006 94.6 91.3739 94.2C91.3472 93.72 91.2606 93.28 91.1139 92.88C90.9806 92.48 90.7539 92.16 90.4339 91.92C90.1139 91.6667 89.6672 91.54 89.0939 91.54C88.5472 91.54 88.1006 91.6667 87.7539 91.92C87.4206 92.1733 87.1739 92.5 87.0139 92.9C86.8672 93.2867 86.7806 93.6867 86.7539 94.1C86.7406 94.34 86.7339 94.5933 86.7339 94.86C86.7339 95.1267 86.7406 95.3867 86.7539 95.64C86.7672 96.04 86.8606 96.4267 87.0339 96.8C87.2072 97.16 87.4606 97.46 87.7939 97.7C88.1272 97.94 88.5606 98.06 89.0939 98.06ZM100.981 100C100.181 100 99.5076 99.86 98.9609 99.58C98.4143 99.3 98.0076 98.8867 97.7409 98.34C97.4743 97.78 97.3409 97.0867 97.3409 96.26V91.72H95.7609C95.6276 91.72 95.5143 91.6733 95.4209 91.58C95.3276 91.4867 95.2809 91.3733 95.2809 91.24V90.08C95.2809 89.9467 95.3276 89.8333 95.4209 89.74C95.5143 89.6467 95.6276 89.6 95.7609 89.6H97.3409V86.28C97.3409 86.1467 97.3809 86.0333 97.4609 85.94C97.5543 85.8467 97.6743 85.8 97.8209 85.8H99.4409C99.5743 85.8 99.6876 85.8467 99.7809 85.94C99.8743 86.0333 99.9209 86.1467 99.9209 86.28V89.6H102.421C102.554 89.6 102.668 89.6467 102.761 89.74C102.854 89.8333 102.901 89.9467 102.901 90.08V91.24C102.901 91.3733 102.854 91.4867 102.761 91.58C102.668 91.6733 102.554 91.72 102.421 91.72H99.9209V96.06C99.9209 96.6067 100.014 97.0333 100.201 97.34C100.401 97.6467 100.741 97.8 101.221 97.8H102.601C102.734 97.8 102.848 97.8467 102.941 97.94C103.034 98.0333 103.081 98.1467 103.081 98.28V99.52C103.081 99.6533 103.034 99.7667 102.941 99.86C102.848 99.9533 102.734 100 102.601 100H100.981Z" fill="#757575"/>
</svg>
