<svg width="93" height="105" viewBox="0 0 93 105" fill="none" xmlns="http://www.w3.org/2000/svg">
<g clip-path="url(#clip0_33_123)">
<path d="M57.9825 23.8875C54.8225 9.9375 47.3525 5.3525 46.55 3.6C45.85 2.615 45.225 1.215 44.7125 0C44.6225 1.2375 44.575 1.7125 43.405 2.96C41.5975 4.375 32.31 12.165 31.555 28.01C30.85 42.79 42.23 51.5975 43.775 52.72L43.95 52.845C44.2717 55.2244 44.5467 57.6098 44.775 60H45.9775C46.2623 57.4203 46.6879 54.8582 47.2525 52.325C48.295 51.585 48.7625 51.1675 49.3775 50.5925C52.2899 47.8982 54.6044 44.6228 56.1715 40.9778C57.7386 37.3329 58.5233 33.3997 58.475 29.4325C58.5 27.3975 58.2175 25.2775 57.9825 23.8875V23.8875ZM44.6425 44.375C44.6425 44.375 44.6425 23.6475 45.33 23.65C45.8625 23.65 46.555 50.3875 46.555 50.3875C45.6025 50.275 44.6425 45.9875 44.6425 44.375Z" fill="#757575"/>
</g>
<path d="M2.06 100C1.91333 100 1.79333 99.9533 1.7 99.86C1.60667 99.7667 1.56 99.6533 1.56 99.52V86.5C1.56 86.3533 1.60667 86.2333 1.7 86.14C1.79333 86.0467 1.91333 86 2.06 86H3.64C3.82667 86 3.96667 86.0533 4.06 86.16C4.15333 86.2533 4.21333 86.3267 4.24 86.38L8.1 93.58L12 86.38C12.0267 86.3267 12.0867 86.2533 12.18 86.16C12.2733 86.0533 12.4133 86 12.6 86H14.16C14.3067 86 14.4267 86.0467 14.52 86.14C14.6133 86.2333 14.66 86.3533 14.66 86.5V99.52C14.66 99.6533 14.6133 99.7667 14.52 99.86C14.4267 99.9533 14.3067 100 14.16 100H12.48C12.3333 100 12.2133 99.9533 12.12 99.86C12.04 99.7667 12 99.6533 12 99.52V90.86L9.2 96.2C9.13333 96.32 9.04667 96.4267 8.94 96.52C8.83333 96.6 8.69333 96.64 8.52 96.64H7.7C7.51333 96.64 7.36667 96.6 7.26 96.52C7.16667 96.4267 7.08667 96.32 7.02 96.2L4.22 90.86V99.52C4.22 99.6533 4.17333 99.7667 4.08 99.86C3.98667 99.9533 3.87333 100 3.74 100H2.06ZM22.1309 100.2C21.0643 100.2 20.1643 100.013 19.4309 99.64C18.7109 99.2667 18.1576 98.74 17.7709 98.06C17.3976 97.38 17.1843 96.5867 17.1309 95.68C17.1176 95.44 17.1109 95.1467 17.1109 94.8C17.1109 94.4533 17.1176 94.16 17.1309 93.92C17.1843 93 17.4043 92.2067 17.7909 91.54C18.1909 90.86 18.7509 90.3333 19.4709 89.96C20.2043 89.5867 21.0909 89.4 22.1309 89.4C23.1709 89.4 24.0509 89.5867 24.7709 89.96C25.5043 90.3333 26.0643 90.86 26.4509 91.54C26.8509 92.2067 27.0776 93 27.1309 93.92C27.1443 94.16 27.1509 94.4533 27.1509 94.8C27.1509 95.1467 27.1443 95.44 27.1309 95.68C27.0776 96.5867 26.8576 97.38 26.4709 98.06C26.0976 98.74 25.5443 99.2667 24.8109 99.64C24.0909 100.013 23.1976 100.2 22.1309 100.2ZM22.1309 98.22C22.8376 98.22 23.3843 98 23.7709 97.56C24.1576 97.1067 24.3709 96.4467 24.4109 95.58C24.4243 95.38 24.4309 95.12 24.4309 94.8C24.4309 94.48 24.4243 94.22 24.4109 94.02C24.3709 93.1667 24.1576 92.5133 23.7709 92.06C23.3843 91.6067 22.8376 91.38 22.1309 91.38C21.4243 91.38 20.8776 91.6067 20.4909 92.06C20.1043 92.5133 19.8909 93.1667 19.8509 94.02C19.8376 94.22 19.8309 94.48 19.8309 94.8C19.8309 95.12 19.8376 95.38 19.8509 95.58C19.8909 96.4467 20.1043 97.1067 20.4909 97.56C20.8776 98 21.4243 98.22 22.1309 98.22ZM29.8469 100C29.7135 100 29.6002 99.9533 29.5069 99.86C29.4135 99.7667 29.3669 99.6533 29.3669 99.52V90.08C29.3669 89.9467 29.4135 89.8333 29.5069 89.74C29.6002 89.6467 29.7135 89.6 29.8469 89.6H31.4869C31.6202 89.6 31.7335 89.6467 31.8269 89.74C31.9202 89.8333 31.9669 89.9467 31.9669 90.08V90.9C32.3135 90.4733 32.7535 90.12 33.2869 89.84C33.8335 89.5467 34.5069 89.4 35.3069 89.4C36.1202 89.4 36.8269 89.5867 37.4269 89.96C38.0269 90.32 38.4869 90.8333 38.8069 91.5C39.1402 92.1667 39.3069 92.9667 39.3069 93.9V99.52C39.3069 99.6533 39.2602 99.7667 39.1669 99.86C39.0735 99.9533 38.9602 100 38.8269 100H37.0669C36.9335 100 36.8202 99.9533 36.7269 99.86C36.6335 99.7667 36.5869 99.6533 36.5869 99.52V94.02C36.5869 93.2467 36.3935 92.64 36.0069 92.2C35.6335 91.76 35.0869 91.54 34.3669 91.54C33.6735 91.54 33.1202 91.76 32.7069 92.2C32.2935 92.64 32.0869 93.2467 32.0869 94.02V99.52C32.0869 99.6533 32.0402 99.7667 31.9469 99.86C31.8535 99.9533 31.7402 100 31.6069 100H29.8469ZM46.5473 104.4C45.574 104.4 44.774 104.273 44.1473 104.02C43.5207 103.767 43.0273 103.46 42.6673 103.1C42.3073 102.74 42.0473 102.38 41.8873 102.02C41.7407 101.673 41.6607 101.4 41.6473 101.2C41.634 101.067 41.674 100.947 41.7673 100.84C41.874 100.747 41.994 100.7 42.1273 100.7H43.8673C44.0007 100.7 44.1073 100.727 44.1873 100.78C44.2673 100.847 44.334 100.96 44.3873 101.12C44.4673 101.293 44.574 101.48 44.7073 101.68C44.8407 101.88 45.0407 102.047 45.3073 102.18C45.5873 102.327 45.9673 102.4 46.4473 102.4C46.954 102.4 47.3807 102.327 47.7273 102.18C48.074 102.033 48.334 101.787 48.5073 101.44C48.694 101.093 48.7873 100.613 48.7873 100V98.64C48.4673 99.0267 48.054 99.34 47.5473 99.58C47.054 99.82 46.4407 99.94 45.7073 99.94C44.9873 99.94 44.3673 99.8267 43.8473 99.6C43.3273 99.36 42.894 99.0333 42.5473 98.62C42.2007 98.1933 41.934 97.6933 41.7473 97.12C41.574 96.5467 41.474 95.9133 41.4473 95.22C41.434 94.86 41.434 94.5 41.4473 94.14C41.474 93.4733 41.574 92.8533 41.7473 92.28C41.9207 91.7067 42.1807 91.2067 42.5273 90.78C42.8873 90.34 43.3273 90 43.8473 89.76C44.3673 89.52 44.9873 89.4 45.7073 89.4C46.4673 89.4 47.1073 89.5467 47.6273 89.84C48.1473 90.12 48.574 90.4733 48.9073 90.9V90.1C48.9073 89.9533 48.954 89.8333 49.0473 89.74C49.1407 89.6467 49.254 89.6 49.3873 89.6H51.0073C51.1407 89.6 51.254 89.6467 51.3473 89.74C51.4407 89.8333 51.4873 89.9533 51.4873 90.1L51.5073 99.74C51.5073 100.7 51.3273 101.527 50.9673 102.22C50.6073 102.913 50.0607 103.447 49.3273 103.82C48.6073 104.207 47.6807 104.4 46.5473 104.4ZM46.4473 97.82C46.994 97.82 47.434 97.7 47.7673 97.46C48.1007 97.22 48.3473 96.9067 48.5073 96.52C48.6673 96.1333 48.7607 95.74 48.7873 95.34C48.8007 95.1667 48.8073 94.9467 48.8073 94.68C48.8073 94.4133 48.8007 94.2 48.7873 94.04C48.7607 93.6267 48.6673 93.2333 48.5073 92.86C48.3473 92.4733 48.1007 92.16 47.7673 91.92C47.434 91.6667 46.994 91.54 46.4473 91.54C45.9007 91.54 45.4607 91.6667 45.1273 91.92C44.794 92.16 44.554 92.48 44.4073 92.88C44.274 93.28 44.194 93.72 44.1673 94.2C44.1407 94.52 44.1407 94.8467 44.1673 95.18C44.194 95.6467 44.274 96.0867 44.4073 96.5C44.554 96.9 44.794 97.22 45.1273 97.46C45.4607 97.7 45.9007 97.82 46.4473 97.82ZM58.7716 100.2C57.7049 100.2 56.8049 100.013 56.0716 99.64C55.3516 99.2667 54.7982 98.74 54.4116 98.06C54.0382 97.38 53.8249 96.5867 53.7716 95.68C53.7582 95.44 53.7516 95.1467 53.7516 94.8C53.7516 94.4533 53.7582 94.16 53.7716 93.92C53.8249 93 54.0449 92.2067 54.4316 91.54C54.8316 90.86 55.3916 90.3333 56.1116 89.96C56.8449 89.5867 57.7316 89.4 58.7716 89.4C59.8116 89.4 60.6916 89.5867 61.4116 89.96C62.1449 90.3333 62.7049 90.86 63.0916 91.54C63.4916 92.2067 63.7182 93 63.7716 93.92C63.7849 94.16 63.7916 94.4533 63.7916 94.8C63.7916 95.1467 63.7849 95.44 63.7716 95.68C63.7182 96.5867 63.4982 97.38 63.1116 98.06C62.7382 98.74 62.1849 99.2667 61.4516 99.64C60.7316 100.013 59.8382 100.2 58.7716 100.2ZM58.7716 98.22C59.4782 98.22 60.0249 98 60.4116 97.56C60.7982 97.1067 61.0116 96.4467 61.0516 95.58C61.0649 95.38 61.0716 95.12 61.0716 94.8C61.0716 94.48 61.0649 94.22 61.0516 94.02C61.0116 93.1667 60.7982 92.5133 60.4116 92.06C60.0249 91.6067 59.4782 91.38 58.7716 91.38C58.0649 91.38 57.5182 91.6067 57.1316 92.06C56.7449 92.5133 56.5316 93.1667 56.4916 94.02C56.4782 94.22 56.4716 94.48 56.4716 94.8C56.4716 95.12 56.4782 95.38 56.4916 95.58C56.5316 96.4467 56.7449 97.1067 57.1316 97.56C57.5182 98 58.0649 98.22 58.7716 98.22ZM66.7275 100C66.5942 100 66.4808 99.9533 66.3875 99.86C66.2942 99.7667 66.2475 99.6533 66.2475 99.52V86.5C66.2475 86.3533 66.2942 86.2333 66.3875 86.14C66.4808 86.0467 66.5942 86 66.7275 86H71.6075C72.9542 86 74.0608 86.2067 74.9275 86.62C75.8075 87.0333 76.4675 87.6467 76.9075 88.46C77.3608 89.2733 77.5942 90.2667 77.6075 91.44C77.6342 92.0267 77.6475 92.5467 77.6475 93C77.6475 93.4533 77.6342 93.9667 77.6075 94.54C77.5808 95.78 77.3542 96.8067 76.9275 97.62C76.5008 98.42 75.8542 99.02 74.9875 99.42C74.1342 99.8067 73.0408 100 71.7075 100H66.7275ZM69.0275 97.7H71.6075C72.3542 97.7 72.9608 97.5933 73.4275 97.38C73.8942 97.1667 74.2342 96.8267 74.4475 96.36C74.6742 95.88 74.7942 95.2533 74.8075 94.48C74.8208 94.08 74.8275 93.7333 74.8275 93.44C74.8408 93.1333 74.8408 92.8333 74.8275 92.54C74.8275 92.2333 74.8208 91.8867 74.8075 91.5C74.7808 90.4067 74.5075 89.6 73.9875 89.08C73.4675 88.56 72.6408 88.3 71.5075 88.3H69.0275V97.7ZM80.79 100C80.6567 100 80.5433 99.9533 80.45 99.86C80.3567 99.7667 80.31 99.6533 80.31 99.52V86.5C80.31 86.3533 80.3567 86.2333 80.45 86.14C80.5433 86.0467 80.6567 86 80.79 86H86.59C87.67 86 88.55 86.1667 89.23 86.5C89.91 86.82 90.41 87.2667 90.73 87.84C91.0633 88.4133 91.23 89.08 91.23 89.84C91.23 90.3467 91.1367 90.7933 90.95 91.18C90.7767 91.5533 90.5567 91.86 90.29 92.1C90.0367 92.34 89.7833 92.5267 89.53 92.66C90.05 92.9 90.51 93.3 90.91 93.86C91.31 94.42 91.51 95.0867 91.51 95.86C91.51 96.66 91.33 97.3733 90.97 98C90.61 98.6267 90.0767 99.12 89.37 99.48C88.6633 99.8267 87.79 100 86.75 100H80.79ZM83.09 97.88H86.43C87.15 97.88 87.6967 97.6867 88.07 97.3C88.4433 96.9 88.63 96.42 88.63 95.86C88.63 95.2733 88.4367 94.7867 88.05 94.4C87.6767 94.0133 87.1367 93.82 86.43 93.82H83.09V97.88ZM83.09 91.74H86.23C86.9367 91.74 87.4633 91.5733 87.81 91.24C88.17 90.8933 88.35 90.4467 88.35 89.9C88.35 89.34 88.17 88.9067 87.81 88.6C87.4633 88.28 86.9367 88.12 86.23 88.12H83.09V91.74Z" fill="#757575"/>
<defs>
<clipPath id="clip0_33_123">
<rect width="60" height="60" fill="white" transform="translate(15)"/>
</clipPath>
</defs>
</svg>
