<svg width="62" height="105" viewBox="0 0 62 105" fill="none" xmlns="http://www.w3.org/2000/svg">
<g clip-path="url(#clip0_33_121)">
<path d="M45.5294 56.2525C45.3063 56.3707 45.325 56.4082 45.5387 56.2994C45.6046 56.2725 45.665 56.2337 45.7169 56.185C45.7169 56.1457 45.7169 56.1457 45.5294 56.2525V56.2525ZM45.9794 56.0088C45.8725 56.0969 45.8725 56.0969 46 56.0388C46.0471 56.0167 46.0902 55.9869 46.1275 55.9507C46.1275 55.9 46.0975 55.9113 45.9794 56.0088V56.0088ZM46.2719 55.8325C46.165 55.9207 46.165 55.9207 46.2925 55.8625C46.3398 55.84 46.3829 55.8096 46.42 55.7725C46.42 55.7257 46.39 55.735 46.2719 55.8325ZM46.5681 55.6582C46.4612 55.7463 46.4613 55.7463 46.585 55.6863C46.6544 55.6488 46.7125 55.6094 46.7125 55.5982C46.7125 55.5513 46.6825 55.5607 46.5681 55.6582ZM46.9675 55.3938C46.7631 55.5307 46.6919 55.6188 46.8794 55.5213C47.005 55.4444 47.2187 55.2757 47.1812 55.2757C47.1006 55.3057 47.0331 55.3563 46.9656 55.3938H46.9675ZM29.0369 0.0137813C28.9 0.0231563 28.4894 0.0606563 28.1294 0.0906563C19.6019 0.863156 11.6238 5.45316 6.56688 12.5238C3.77231 16.4017 1.9558 20.8974 1.27187 25.6282C1.03 27.2782 1 27.7657 1 30.0025C1 32.2375 1.03 32.7175 1.27187 34.3675C2.905 45.6382 10.9225 55.0994 21.79 58.6057C23.7456 59.23 25.795 59.6613 28.1294 59.9257C29.0369 60.0232 32.9613 60.0232 33.8688 59.9257C37.9038 59.4757 41.3106 58.48 44.6819 56.7607C45.1994 56.4982 45.2969 56.4288 45.2275 56.3707C43.5829 54.1967 41.9523 52.0123 40.3356 49.8175L35.5413 43.3432L29.5356 34.4463C27.538 31.4674 25.5198 28.5023 23.4812 25.5513C23.4606 25.5513 23.4344 29.5057 23.4231 34.3282C23.4025 42.775 23.4025 43.1182 23.2956 43.3132C23.1931 43.5487 23.0095 43.7397 22.7781 43.8513C22.5925 43.9394 22.4256 43.9582 21.5388 43.9582H20.5244L20.26 43.7932C20.0944 43.6869 19.9599 43.5388 19.87 43.3638L19.7425 43.0994L19.7519 31.3413L19.7725 19.5832L19.9581 19.3488C20.0767 19.2047 20.2226 19.0855 20.3875 18.9982C20.6331 18.88 20.7306 18.8613 21.745 18.8613C22.9356 18.8613 23.1325 18.9082 23.4456 19.2513C25.8785 22.8698 28.2904 26.5024 30.6812 30.1488C34.5794 36.0588 39.9006 44.1232 42.5163 48.0794L47.2731 55.2775L47.5075 55.1219C49.7936 53.6027 51.8652 51.7833 53.6669 49.7125C57.446 45.3871 59.8983 40.064 60.73 34.3807C60.9719 32.7307 61.0019 32.2413 61.0019 30.0063C61.0019 27.7694 60.9719 27.2913 60.73 25.6413C59.0969 14.3707 51.0794 4.90941 40.2119 1.40128C38.1808 0.758008 36.0904 0.320189 33.9719 0.0944063C33.4037 0.0362813 29.5263 -0.0330937 29.0388 0.0175313L29.0369 0.0137813ZM41.3125 18.1582C41.452 18.2267 41.5764 18.3223 41.6785 18.4395C41.7805 18.5567 41.8582 18.6931 41.9069 18.8407C41.9575 18.9982 41.9669 22.2588 41.9575 29.6032L41.9369 40.1482L40.0825 37.2982L38.2169 34.4463V26.7907C38.2169 21.8275 38.2375 19.045 38.2638 18.9082C38.3555 18.5943 38.5661 18.3286 38.8506 18.1675C39.0831 18.0494 39.1731 18.04 40.1013 18.04C40.9694 18.04 41.1156 18.0494 41.3106 18.1582H41.3125Z" fill="#757575"/>
</g>
<path d="M2.04 100C1.90667 100 1.79333 99.9533 1.7 99.86C1.60667 99.7667 1.56 99.6533 1.56 99.52V86.5C1.56 86.3533 1.60667 86.2333 1.7 86.14C1.79333 86.0467 1.90667 86 2.04 86H3.58C3.76667 86 3.9 86.0467 3.98 86.14C4.07333 86.22 4.13333 86.28 4.16 86.32L9.92 95.28V86.5C9.92 86.3533 9.96 86.2333 10.04 86.14C10.1333 86.0467 10.2533 86 10.4 86H12.08C12.2267 86 12.3467 86.0467 12.44 86.14C12.5333 86.2333 12.58 86.3533 12.58 86.5V99.5C12.58 99.6467 12.5333 99.7667 12.44 99.86C12.3467 99.9533 12.2333 100 12.1 100H10.54C10.3533 100 10.22 99.9533 10.14 99.86C10.06 99.7667 10 99.7067 9.96 99.68L4.22 90.92V99.52C4.22 99.6533 4.17333 99.7667 4.08 99.86C3.98667 99.9533 3.86667 100 3.72 100H2.04ZM19.9406 100.2C18.4606 100.2 17.2873 99.7733 16.4206 98.92C15.554 98.0667 15.0873 96.8533 15.0206 95.28C15.0073 95.1467 15.0006 94.98 15.0006 94.78C15.0006 94.5667 15.0073 94.4 15.0206 94.28C15.074 93.28 15.3006 92.4133 15.7006 91.68C16.114 90.9467 16.6806 90.3867 17.4006 90C18.1206 89.6 18.9673 89.4 19.9406 89.4C21.0206 89.4 21.9273 89.6267 22.6606 90.08C23.394 90.52 23.9473 91.14 24.3206 91.94C24.694 92.7267 24.8806 93.64 24.8806 94.68V95.1C24.8806 95.2333 24.834 95.3467 24.7406 95.44C24.6473 95.5333 24.5273 95.58 24.3806 95.58H17.7406C17.7406 95.58 17.7406 95.6 17.7406 95.64C17.7406 95.68 17.7406 95.7133 17.7406 95.74C17.754 96.2067 17.8406 96.64 18.0006 97.04C18.174 97.4267 18.4206 97.74 18.7406 97.98C19.074 98.22 19.4673 98.34 19.9206 98.34C20.294 98.34 20.6073 98.2867 20.8606 98.18C21.114 98.06 21.3206 97.9267 21.4806 97.78C21.6406 97.6333 21.754 97.5133 21.8206 97.42C21.9406 97.26 22.034 97.1667 22.1006 97.14C22.1806 97.1 22.294 97.08 22.4406 97.08H24.1606C24.294 97.08 24.4006 97.12 24.4806 97.2C24.574 97.28 24.614 97.38 24.6006 97.5C24.5873 97.7133 24.474 97.9733 24.2606 98.28C24.0606 98.5867 23.7673 98.8867 23.3806 99.18C22.994 99.4733 22.5073 99.72 21.9206 99.92C21.3473 100.107 20.6873 100.2 19.9406 100.2ZM17.7406 93.9H22.1606V93.84C22.1606 93.32 22.074 92.8667 21.9006 92.48C21.7273 92.0933 21.474 91.7867 21.1406 91.56C20.8073 91.3333 20.4073 91.22 19.9406 91.22C19.474 91.22 19.074 91.3333 18.7406 91.56C18.4073 91.7867 18.154 92.0933 17.9806 92.48C17.8206 92.8667 17.7406 93.32 17.7406 93.84V93.9ZM26.2902 100C26.1702 100 26.0635 99.96 25.9702 99.88C25.8902 99.7867 25.8502 99.68 25.8502 99.56C25.8502 99.52 25.8568 99.4733 25.8702 99.42C25.8968 99.3667 25.9368 99.3 25.9902 99.22L29.3902 94.66L26.2302 90.38C26.1902 90.3133 26.1568 90.2533 26.1302 90.2C26.1168 90.1467 26.1102 90.0933 26.1102 90.04C26.1102 89.92 26.1502 89.82 26.2302 89.74C26.3235 89.6467 26.4302 89.6 26.5502 89.6H28.2902C28.4502 89.6 28.5702 89.64 28.6502 89.72C28.7302 89.8 28.7902 89.8733 28.8302 89.94L31.0902 92.94L33.3502 89.94C33.4035 89.8733 33.4635 89.8 33.5302 89.72C33.6102 89.64 33.7302 89.6 33.8902 89.6H35.5502C35.6702 89.6 35.7702 89.6467 35.8502 89.74C35.9435 89.82 35.9902 89.9133 35.9902 90.02C35.9902 90.0867 35.9768 90.1467 35.9502 90.2C35.9368 90.2533 35.9102 90.3133 35.8702 90.38L32.6702 94.7L36.0902 99.22C36.1435 99.3 36.1768 99.3667 36.1902 99.42C36.2168 99.4733 36.2302 99.52 36.2302 99.56C36.2302 99.68 36.1835 99.7867 36.0902 99.88C36.0102 99.96 35.9102 100 35.7902 100H33.9702C33.8235 100 33.7102 99.9667 33.6302 99.9C33.5502 99.82 33.4835 99.7467 33.4302 99.68L31.0302 96.5L28.5902 99.68C28.5368 99.7467 28.4702 99.82 28.3902 99.9C28.3235 99.9667 28.2102 100 28.0502 100H26.2902ZM42.7192 100C41.9192 100 41.2459 99.86 40.6992 99.58C40.1526 99.3 39.7459 98.8867 39.4792 98.34C39.2126 97.78 39.0792 97.0867 39.0792 96.26V91.72H37.4992C37.3659 91.72 37.2526 91.6733 37.1592 91.58C37.0659 91.4867 37.0192 91.3733 37.0192 91.24V90.08C37.0192 89.9467 37.0659 89.8333 37.1592 89.74C37.2526 89.6467 37.3659 89.6 37.4992 89.6H39.0792V86.28C39.0792 86.1467 39.1192 86.0333 39.1992 85.94C39.2926 85.8467 39.4126 85.8 39.5592 85.8H41.1792C41.3126 85.8 41.4259 85.8467 41.5192 85.94C41.6126 86.0333 41.6592 86.1467 41.6592 86.28V89.6H44.1592C44.2926 89.6 44.4059 89.6467 44.4992 89.74C44.5926 89.8333 44.6392 89.9467 44.6392 90.08V91.24C44.6392 91.3733 44.5926 91.4867 44.4992 91.58C44.4059 91.6733 44.2926 91.72 44.1592 91.72H41.6592V96.06C41.6592 96.6067 41.7526 97.0333 41.9392 97.34C42.1392 97.6467 42.4792 97.8 42.9592 97.8H44.3392C44.4726 97.8 44.5859 97.8467 44.6792 97.94C44.7726 98.0333 44.8192 98.1467 44.8192 98.28V99.52C44.8192 99.6533 44.7726 99.7667 44.6792 99.86C44.5859 99.9533 44.4726 100 44.3392 100H42.7192ZM44.8734 103.8C44.7401 103.8 44.6268 103.753 44.5334 103.66C44.4401 103.567 44.3934 103.453 44.3934 103.32V102.16C44.3934 102.027 44.4401 101.913 44.5334 101.82C44.6268 101.727 44.7401 101.68 44.8734 101.68H45.3934C45.8068 101.68 46.1134 101.607 46.3134 101.46C46.5134 101.313 46.6468 101.107 46.7134 100.84C46.7801 100.587 46.8134 100.3 46.8134 99.98V90.08C46.8134 89.9467 46.8601 89.8333 46.9534 89.74C47.0468 89.6467 47.1601 89.6 47.2934 89.6H49.0334C49.1668 89.6 49.2801 89.6467 49.3734 89.74C49.4668 89.8333 49.5134 89.9467 49.5134 90.08V100.02C49.5134 100.807 49.3668 101.48 49.0734 102.04C48.7934 102.6 48.3668 103.033 47.7934 103.34C47.2334 103.647 46.5134 103.8 45.6334 103.8H44.8734ZM47.2134 87.88C47.0668 87.88 46.9468 87.84 46.8534 87.76C46.7601 87.6667 46.7134 87.5467 46.7134 87.4V85.96C46.7134 85.8267 46.7601 85.7133 46.8534 85.62C46.9468 85.5267 47.0668 85.48 47.2134 85.48H49.0934C49.2401 85.48 49.3601 85.5267 49.4534 85.62C49.5468 85.7133 49.5934 85.8267 49.5934 85.96V87.4C49.5934 87.5467 49.5468 87.6667 49.4534 87.76C49.3601 87.84 49.2401 87.88 49.0934 87.88H47.2134ZM56.3538 100.2C55.5538 100.2 54.8671 100.107 54.2938 99.92C53.7338 99.7333 53.2738 99.5 52.9138 99.22C52.5538 98.94 52.2871 98.66 52.1138 98.38C51.9404 98.1 51.8471 97.8667 51.8338 97.68C51.8204 97.5333 51.8604 97.42 51.9538 97.34C52.0604 97.2467 52.1738 97.2 52.2938 97.2H53.8738C53.9271 97.2 53.9738 97.2067 54.0138 97.22C54.0538 97.2333 54.1071 97.2733 54.1738 97.34C54.3471 97.4867 54.5271 97.64 54.7138 97.8C54.9138 97.96 55.1471 98.1 55.4138 98.22C55.6804 98.3267 56.0138 98.38 56.4138 98.38C56.9338 98.38 57.3671 98.28 57.7138 98.08C58.0738 97.8667 58.2538 97.5667 58.2538 97.18C58.2538 96.9 58.1738 96.6733 58.0138 96.5C57.8671 96.3267 57.5871 96.1733 57.1738 96.04C56.7604 95.8933 56.1738 95.74 55.4138 95.58C54.6671 95.4067 54.0471 95.1867 53.5538 94.92C53.0604 94.6533 52.6938 94.32 52.4538 93.92C52.2138 93.52 52.0938 93.0533 52.0938 92.52C52.0938 92 52.2471 91.5067 52.5538 91.04C52.8738 90.56 53.3404 90.1667 53.9538 89.86C54.5804 89.5533 55.3538 89.4 56.2738 89.4C56.9938 89.4 57.6204 89.4933 58.1538 89.68C58.6871 89.8533 59.1271 90.0733 59.4738 90.34C59.8338 90.6067 60.1071 90.88 60.2938 91.16C60.4804 91.4267 60.5804 91.66 60.5938 91.86C60.6071 92.0067 60.5671 92.1267 60.4738 92.22C60.3804 92.3 60.2738 92.34 60.1538 92.34H58.6738C58.6071 92.34 58.5471 92.3267 58.4938 92.3C58.4404 92.2733 58.3871 92.24 58.3338 92.2C58.1871 92.0667 58.0271 91.9267 57.8538 91.78C57.6804 91.6333 57.4671 91.5067 57.2138 91.4C56.9738 91.28 56.6538 91.22 56.2538 91.22C55.7471 91.22 55.3604 91.3333 55.0938 91.56C54.8271 91.7733 54.6938 92.0467 54.6938 92.38C54.6938 92.6067 54.7538 92.8067 54.8738 92.98C55.0071 93.14 55.2671 93.2933 55.6538 93.44C56.0404 93.5867 56.6271 93.74 57.4138 93.9C58.3071 94.06 59.0138 94.3 59.5338 94.62C60.0671 94.9267 60.4404 95.2867 60.6538 95.7C60.8804 96.1 60.9938 96.5467 60.9938 97.04C60.9938 97.64 60.8138 98.18 60.4538 98.66C60.1071 99.14 59.5871 99.52 58.8938 99.8C58.2138 100.067 57.3671 100.2 56.3538 100.2Z" fill="#757575"/>
<defs>
<clipPath id="clip0_33_121">
<rect width="60" height="60" fill="white" transform="translate(1)"/>
</clipPath>
</defs>
</svg>
