<svg width="67" height="105" viewBox="0 0 67 105" fill="none" xmlns="http://www.w3.org/2000/svg">
<path d="M33 54.9212C32.3125 54.9212 31.67 54.7362 31.07 54.4162L24.9725 50.7962C24.06 50.2887 24.5175 50.1037 24.7925 50.0112C26.0325 49.5987 26.2625 49.5087 27.545 48.7787C27.685 48.6862 27.8675 48.7287 28.0075 48.8212L32.6825 51.6212C32.8675 51.7112 33.0975 51.7112 33.235 51.6212L51.5325 41.0287C51.7175 40.9387 51.8075 40.7537 51.8075 40.5237V19.3787C51.8075 19.1512 51.7175 18.9662 51.5325 18.8762L33.235 8.32867C33.0525 8.23617 32.8225 8.23617 32.6825 8.32867L14.38 18.8737C14.1975 18.9637 14.105 19.1962 14.105 19.3762V40.5187C14.105 40.7012 14.1975 40.9337 14.38 41.0237L19.38 43.9162C22.085 45.2862 23.785 43.6787 23.785 42.0787V21.2137C23.785 20.9387 24.0125 20.6612 24.335 20.6612H26.675C26.945 20.6612 27.225 20.8912 27.225 21.2137V42.0812C27.225 45.7037 25.255 47.8162 21.815 47.8162C20.76 47.8162 19.935 47.8162 17.595 46.6662L12.7825 43.9187C12.1961 43.5778 11.7095 43.089 11.3713 42.5011C11.033 41.9133 10.855 41.2469 10.855 40.5687V19.4237C10.855 18.0487 11.5875 16.7637 12.7825 16.0762L31.0725 5.48367C31.6662 5.16613 32.3292 5 33.0025 5C33.6758 5 34.3387 5.16613 34.9325 5.48367L53.225 16.0762C54.4225 16.7612 55.1525 18.0487 55.1525 19.4237V40.5687C55.1525 41.9412 54.42 43.2262 53.225 43.9187L34.9325 54.5087C34.33 54.7837 33.6425 54.9212 33 54.9212V54.9212ZM38.64 40.3812C30.615 40.3812 28.965 36.7112 28.965 33.5962C28.965 33.3212 29.195 33.0437 29.515 33.0437H31.9C32.175 33.0437 32.4025 33.2262 32.4025 33.5037C32.77 35.9312 33.8225 37.1262 38.6875 37.1262C42.5375 37.1262 44.1925 36.2512 44.1925 34.1887C44.1925 32.9962 43.73 32.1262 37.725 31.5312C32.7275 31.0312 29.61 29.9237 29.61 25.9362C29.61 22.2237 32.7275 20.0212 37.9575 20.0212C43.825 20.0212 46.715 22.0437 47.08 26.4412C47.0756 26.5896 47.0268 26.7333 46.94 26.8537C46.8475 26.9437 46.7125 27.0362 46.575 27.0362H44.1925C44.0747 27.0337 43.9611 26.992 43.8697 26.9178C43.7782 26.8435 43.7141 26.7409 43.6875 26.6262C43.135 24.0962 41.715 23.2762 37.9575 23.2762C33.735 23.2762 33.23 24.7437 33.23 25.8437C33.23 27.1712 33.8225 27.5837 39.515 28.3187C45.155 29.0512 47.815 30.1062 47.815 34.0537C47.765 38.0912 44.4675 40.3812 38.64 40.3812V40.3812Z" fill="#757575"/>
<path d="M2.04 100C1.90667 100 1.79333 99.9533 1.7 99.86C1.60667 99.7667 1.56 99.6533 1.56 99.52V86.5C1.56 86.3533 1.60667 86.2333 1.7 86.14C1.79333 86.0467 1.90667 86 2.04 86H3.58C3.76667 86 3.9 86.0467 3.98 86.14C4.07333 86.22 4.13333 86.28 4.16 86.32L9.92 95.28V86.5C9.92 86.3533 9.96 86.2333 10.04 86.14C10.1333 86.0467 10.2533 86 10.4 86H12.08C12.2267 86 12.3467 86.0467 12.44 86.14C12.5333 86.2333 12.58 86.3533 12.58 86.5V99.5C12.58 99.6467 12.5333 99.7667 12.44 99.86C12.3467 99.9533 12.2333 100 12.1 100H10.54C10.3533 100 10.22 99.9533 10.14 99.86C10.06 99.7667 10 99.7067 9.96 99.68L4.22 90.92V99.52C4.22 99.6533 4.17333 99.7667 4.08 99.86C3.98667 99.9533 3.86667 100 3.72 100H2.04ZM20.0606 100.2C18.994 100.2 18.094 100.013 17.3606 99.64C16.6406 99.2667 16.0873 98.74 15.7006 98.06C15.3273 97.38 15.114 96.5867 15.0606 95.68C15.0473 95.44 15.0406 95.1467 15.0406 94.8C15.0406 94.4533 15.0473 94.16 15.0606 93.92C15.114 93 15.334 92.2067 15.7206 91.54C16.1206 90.86 16.6806 90.3333 17.4006 89.96C18.134 89.5867 19.0206 89.4 20.0606 89.4C21.1006 89.4 21.9806 89.5867 22.7006 89.96C23.434 90.3333 23.994 90.86 24.3806 91.54C24.7806 92.2067 25.0073 93 25.0606 93.92C25.074 94.16 25.0806 94.4533 25.0806 94.8C25.0806 95.1467 25.074 95.44 25.0606 95.68C25.0073 96.5867 24.7873 97.38 24.4006 98.06C24.0273 98.74 23.474 99.2667 22.7406 99.64C22.0206 100.013 21.1273 100.2 20.0606 100.2ZM20.0606 98.22C20.7673 98.22 21.314 98 21.7006 97.56C22.0873 97.1067 22.3006 96.4467 22.3406 95.58C22.354 95.38 22.3606 95.12 22.3606 94.8C22.3606 94.48 22.354 94.22 22.3406 94.02C22.3006 93.1667 22.0873 92.5133 21.7006 92.06C21.314 91.6067 20.7673 91.38 20.0606 91.38C19.354 91.38 18.8073 91.6067 18.4206 92.06C18.034 92.5133 17.8206 93.1667 17.7806 94.02C17.7673 94.22 17.7606 94.48 17.7606 94.8C17.7606 95.12 17.7673 95.38 17.7806 95.58C17.8206 96.4467 18.034 97.1067 18.4206 97.56C18.8073 98 19.354 98.22 20.0606 98.22ZM31.1566 100.2C30.4632 100.2 29.8499 100.087 29.3166 99.86C28.7966 99.62 28.3632 99.2867 28.0166 98.86C27.6699 98.4333 27.4032 97.9333 27.2166 97.36C27.0299 96.7733 26.9232 96.1333 26.8966 95.44C26.8832 95.2 26.8766 94.9867 26.8766 94.8C26.8766 94.6 26.8832 94.38 26.8966 94.14C26.9232 93.4733 27.0232 92.8533 27.1966 92.28C27.3832 91.7067 27.6499 91.2067 27.9966 90.78C28.3566 90.34 28.7966 90 29.3166 89.76C29.8499 89.52 30.4632 89.4 31.1566 89.4C31.8766 89.4 32.4832 89.5267 32.9766 89.78C33.4832 90.02 33.9032 90.3333 34.2366 90.72V86.28C34.2366 86.1467 34.2766 86.0333 34.3566 85.94C34.4499 85.8467 34.5699 85.8 34.7166 85.8H36.4166C36.5499 85.8 36.6632 85.8467 36.7566 85.94C36.8499 86.0333 36.8966 86.1467 36.8966 86.28V99.52C36.8966 99.6533 36.8499 99.7667 36.7566 99.86C36.6632 99.9533 36.5499 100 36.4166 100H34.8366C34.6899 100 34.5699 99.9533 34.4766 99.86C34.3966 99.7667 34.3566 99.6533 34.3566 99.52V98.78C34.0232 99.1933 33.5966 99.5333 33.0766 99.8C32.5699 100.067 31.9299 100.2 31.1566 100.2ZM31.8966 98.06C32.4566 98.06 32.9032 97.9333 33.2366 97.68C33.5699 97.4267 33.8166 97.1067 33.9766 96.72C34.1366 96.32 34.2232 95.9133 34.2366 95.5C34.2499 95.26 34.2566 95.0067 34.2566 94.74C34.2566 94.46 34.2499 94.2 34.2366 93.96C34.2232 93.56 34.1299 93.18 33.9566 92.82C33.7832 92.4467 33.5299 92.14 33.1966 91.9C32.8632 91.66 32.4299 91.54 31.8966 91.54C31.3366 91.54 30.8899 91.6667 30.5566 91.92C30.2366 92.16 30.0032 92.48 29.8566 92.88C29.7099 93.28 29.6232 93.72 29.5966 94.2C29.5832 94.6 29.5832 95 29.5966 95.4C29.6232 95.88 29.7099 96.32 29.8566 96.72C30.0032 97.12 30.2366 97.4467 30.5566 97.7C30.8899 97.94 31.3366 98.06 31.8966 98.06ZM44.0422 100.2C42.5622 100.2 41.3889 99.7733 40.5222 98.92C39.6555 98.0667 39.1889 96.8533 39.1222 95.28C39.1089 95.1467 39.1022 94.98 39.1022 94.78C39.1022 94.5667 39.1089 94.4 39.1222 94.28C39.1755 93.28 39.4022 92.4133 39.8022 91.68C40.2155 90.9467 40.7822 90.3867 41.5022 90C42.2222 89.6 43.0689 89.4 44.0422 89.4C45.1222 89.4 46.0289 89.6267 46.7622 90.08C47.4955 90.52 48.0489 91.14 48.4222 91.94C48.7955 92.7267 48.9822 93.64 48.9822 94.68V95.1C48.9822 95.2333 48.9355 95.3467 48.8422 95.44C48.7489 95.5333 48.6289 95.58 48.4822 95.58H41.8422C41.8422 95.58 41.8422 95.6 41.8422 95.64C41.8422 95.68 41.8422 95.7133 41.8422 95.74C41.8555 96.2067 41.9422 96.64 42.1022 97.04C42.2755 97.4267 42.5222 97.74 42.8422 97.98C43.1755 98.22 43.5689 98.34 44.0222 98.34C44.3955 98.34 44.7089 98.2867 44.9622 98.18C45.2155 98.06 45.4222 97.9267 45.5822 97.78C45.7422 97.6333 45.8555 97.5133 45.9222 97.42C46.0422 97.26 46.1355 97.1667 46.2022 97.14C46.2822 97.1 46.3955 97.08 46.5422 97.08H48.2622C48.3955 97.08 48.5022 97.12 48.5822 97.2C48.6755 97.28 48.7155 97.38 48.7022 97.5C48.6889 97.7133 48.5755 97.9733 48.3622 98.28C48.1622 98.5867 47.8689 98.8867 47.4822 99.18C47.0955 99.4733 46.6089 99.72 46.0222 99.92C45.4489 100.107 44.7889 100.2 44.0422 100.2ZM41.8422 93.9H46.2622V93.84C46.2622 93.32 46.1755 92.8667 46.0022 92.48C45.8289 92.0933 45.5755 91.7867 45.2422 91.56C44.9089 91.3333 44.5089 91.22 44.0422 91.22C43.5755 91.22 43.1755 91.3333 42.8422 91.56C42.5089 91.7867 42.2555 92.0933 42.0822 92.48C41.9222 92.8667 41.8422 93.32 41.8422 93.84V93.9ZM49.3852 103.8C49.2518 103.8 49.1385 103.753 49.0452 103.66C48.9518 103.567 48.9052 103.453 48.9052 103.32V102.16C48.9052 102.027 48.9518 101.913 49.0452 101.82C49.1385 101.727 49.2518 101.68 49.3852 101.68H49.9052C50.3185 101.68 50.6252 101.607 50.8252 101.46C51.0252 101.313 51.1585 101.107 51.2252 100.84C51.2918 100.587 51.3252 100.3 51.3252 99.98V90.08C51.3252 89.9467 51.3718 89.8333 51.4652 89.74C51.5585 89.6467 51.6718 89.6 51.8052 89.6H53.5452C53.6785 89.6 53.7918 89.6467 53.8852 89.74C53.9785 89.8333 54.0252 89.9467 54.0252 90.08V100.02C54.0252 100.807 53.8785 101.48 53.5852 102.04C53.3052 102.6 52.8785 103.033 52.3052 103.34C51.7452 103.647 51.0252 103.8 50.1452 103.8H49.3852ZM51.7252 87.88C51.5785 87.88 51.4585 87.84 51.3652 87.76C51.2718 87.6667 51.2252 87.5467 51.2252 87.4V85.96C51.2252 85.8267 51.2718 85.7133 51.3652 85.62C51.4585 85.5267 51.5785 85.48 51.7252 85.48H53.6052C53.7518 85.48 53.8718 85.5267 53.9652 85.62C54.0585 85.7133 54.1052 85.8267 54.1052 85.96V87.4C54.1052 87.5467 54.0585 87.6667 53.9652 87.76C53.8718 87.84 53.7518 87.88 53.6052 87.88H51.7252ZM60.8655 100.2C60.0655 100.2 59.3788 100.107 58.8055 99.92C58.2455 99.7333 57.7855 99.5 57.4255 99.22C57.0655 98.94 56.7988 98.66 56.6255 98.38C56.4521 98.1 56.3588 97.8667 56.3455 97.68C56.3321 97.5333 56.3721 97.42 56.4655 97.34C56.5721 97.2467 56.6855 97.2 56.8055 97.2H58.3855C58.4388 97.2 58.4855 97.2067 58.5255 97.22C58.5655 97.2333 58.6188 97.2733 58.6855 97.34C58.8588 97.4867 59.0388 97.64 59.2255 97.8C59.4255 97.96 59.6588 98.1 59.9255 98.22C60.1921 98.3267 60.5255 98.38 60.9255 98.38C61.4455 98.38 61.8788 98.28 62.2255 98.08C62.5855 97.8667 62.7655 97.5667 62.7655 97.18C62.7655 96.9 62.6855 96.6733 62.5255 96.5C62.3788 96.3267 62.0988 96.1733 61.6855 96.04C61.2721 95.8933 60.6855 95.74 59.9255 95.58C59.1788 95.4067 58.5588 95.1867 58.0655 94.92C57.5721 94.6533 57.2055 94.32 56.9655 93.92C56.7255 93.52 56.6055 93.0533 56.6055 92.52C56.6055 92 56.7588 91.5067 57.0655 91.04C57.3855 90.56 57.8521 90.1667 58.4655 89.86C59.0921 89.5533 59.8655 89.4 60.7855 89.4C61.5055 89.4 62.1321 89.4933 62.6655 89.68C63.1988 89.8533 63.6388 90.0733 63.9855 90.34C64.3455 90.6067 64.6188 90.88 64.8055 91.16C64.9921 91.4267 65.0921 91.66 65.1055 91.86C65.1188 92.0067 65.0788 92.1267 64.9855 92.22C64.8921 92.3 64.7855 92.34 64.6655 92.34H63.1855C63.1188 92.34 63.0588 92.3267 63.0055 92.3C62.9521 92.2733 62.8988 92.24 62.8455 92.2C62.6988 92.0667 62.5388 91.9267 62.3655 91.78C62.1921 91.6333 61.9788 91.5067 61.7255 91.4C61.4855 91.28 61.1655 91.22 60.7655 91.22C60.2588 91.22 59.8721 91.3333 59.6055 91.56C59.3388 91.7733 59.2055 92.0467 59.2055 92.38C59.2055 92.6067 59.2655 92.8067 59.3855 92.98C59.5188 93.14 59.7788 93.2933 60.1655 93.44C60.5521 93.5867 61.1388 93.74 61.9255 93.9C62.8188 94.06 63.5255 94.3 64.0455 94.62C64.5788 94.9267 64.9521 95.2867 65.1655 95.7C65.3921 96.1 65.5055 96.5467 65.5055 97.04C65.5055 97.64 65.3255 98.18 64.9655 98.66C64.6188 99.14 64.0988 99.52 63.4055 99.8C62.7255 100.067 61.8788 100.2 60.8655 100.2Z" fill="#757575"/>
</svg>
