<svg width="73" height="105" viewBox="0 0 73 105" fill="none" xmlns="http://www.w3.org/2000/svg">
<path d="M67 29.7225C67 25.7475 62.0225 21.98 54.39 19.645C56.1525 11.8675 55.37 5.6775 51.92 3.695C51.084 3.2268 50.1379 2.99113 49.18 3.0125V5.7375C49.7425 5.7375 50.195 5.85 50.575 6.0575C52.2375 7.0125 52.96 10.6425 52.3975 15.315C52.2625 16.465 52.0425 17.675 51.7725 18.91C49.2166 18.2941 46.6225 17.8489 44.0075 17.5775C42.4496 15.4282 40.75 13.3853 38.92 11.4625C42.9075 7.7575 46.65 5.7275 49.195 5.7275V3C45.83 3 41.4275 5.3975 36.975 9.555C32.525 5.425 28.12 3.05 24.7575 3.05V5.775C27.29 5.775 31.045 7.795 35.0325 11.475C33.32 13.275 31.6075 15.315 29.98 17.5775C27.3596 17.8459 24.7609 18.2953 22.2025 18.9225C21.92 17.7 21.7125 16.515 21.565 15.3775C20.99 10.7025 21.7 7.0725 23.3525 6.1075C23.7175 5.8875 24.195 5.7875 24.7575 5.7875V3.0625C23.7325 3.0625 22.8 3.2825 21.995 3.745C18.5575 5.7275 17.7875 11.9025 19.56 19.6575C11.9525 22.0075 7 25.76 7 29.7225C7 33.6975 11.9775 37.465 19.61 39.7975C17.8475 47.5775 18.63 53.7675 22.08 55.7475C22.875 56.2125 23.805 56.4325 24.83 56.4325C28.195 56.4325 32.5975 54.035 37.05 49.8775C41.5 54.01 45.9025 56.3825 49.2675 56.3825C50.2328 56.4029 51.1861 56.1665 52.03 55.6975C55.4675 53.7175 56.2375 47.5425 54.465 39.7875C62.0475 37.4525 67 33.685 67 29.7225ZM51.075 21.565C50.6 23.1996 50.0494 24.8114 49.425 26.395C48.4029 24.4069 47.2806 22.4719 46.0625 20.5975C47.8 20.855 49.475 21.1725 51.0775 21.565H51.075ZM45.475 34.59C44.5225 36.24 43.5425 37.8075 42.5275 39.2625C38.8581 39.5859 35.1676 39.5901 31.4975 39.275C29.3924 36.268 27.5513 33.0844 25.995 29.76C27.549 26.4278 29.3822 23.233 31.475 20.21C35.1435 19.8859 38.8332 19.8809 42.5025 20.195C43.5175 21.65 44.51 23.205 45.4625 24.845C46.3925 26.445 47.2375 28.07 48.0075 29.71C47.229 31.3699 46.3841 32.9979 45.475 34.59V34.59ZM49.425 33C50.085 34.6375 50.65 36.2775 51.1125 37.8675C49.5125 38.26 47.8225 38.59 46.075 38.845C47.2881 36.9535 48.4062 35.0028 49.425 33V33ZM37.025 46.05C35.8875 44.875 34.75 43.5675 33.625 42.135C34.725 42.185 35.85 42.2225 36.9875 42.2225C38.1375 42.2225 39.275 42.1975 40.3875 42.135C39.2875 43.5675 38.15 44.875 37.025 46.05ZM27.925 38.845C26.2394 38.6008 24.5659 38.2787 22.91 37.88C23.3625 36.3025 23.925 34.675 24.56 33.05C25.0625 34.025 25.59 35.005 26.165 35.985C26.74 36.9625 27.325 37.9175 27.925 38.845ZM36.9625 13.395C38.1 14.57 39.2375 15.8775 40.3625 17.31C39.2625 17.26 38.1375 17.2225 37 17.2225C35.85 17.2225 34.7125 17.2475 33.6 17.31C34.7 15.8775 35.8375 14.57 36.9625 13.395ZM27.9125 20.6C26.6997 22.4873 25.5816 24.4339 24.5625 26.4325C23.9205 24.8386 23.3574 23.2142 22.875 21.565C24.475 21.185 26.165 20.855 27.9125 20.6ZM16.845 35.91C12.515 34.065 9.715 31.6425 9.715 29.7225C9.715 27.8025 12.515 25.3675 16.845 23.535C17.895 23.0825 19.045 22.6775 20.2325 22.3C20.93 24.695 21.8475 27.19 22.9825 29.7475C21.9109 32.153 21.0046 34.6287 20.27 37.1575C19.1086 36.7979 17.9656 36.3816 16.845 35.91V35.91ZM23.425 53.385C21.7625 52.435 21.04 48.8 21.6025 44.13C21.7375 42.98 21.9575 41.7675 22.2275 40.5325C24.6225 41.12 27.24 41.5725 29.9925 41.8675C31.5504 44.0167 33.25 46.0596 35.08 47.9825C31.0925 51.6875 27.35 53.7175 24.805 53.7175C24.3249 53.7227 23.8508 53.6094 23.425 53.3875V53.385ZM52.435 44.0675C53.01 48.74 52.3 52.3725 50.6475 53.3375C50.2825 53.5575 49.805 53.655 49.2425 53.655C46.71 53.655 42.955 51.6375 38.9675 47.955C40.68 46.16 42.3925 44.1175 44.02 41.855C46.6404 41.5866 49.2391 41.1372 51.7975 40.51C52.08 41.745 52.2975 42.93 52.435 44.0675V44.0675ZM57.1425 35.91C56.0925 36.3625 54.9425 36.7675 53.755 37.145C53.0074 34.6033 52.0887 32.1151 51.005 29.6975C52.13 27.155 53.0325 24.6725 53.7175 22.2875C54.93 22.665 56.0775 23.0825 57.155 23.535C61.485 25.38 64.285 27.8025 64.285 29.7225C64.2725 31.6425 61.4725 34.0775 57.1425 35.91V35.91Z" fill="#757575"/>
<path d="M36.9875 35.3124C38.47 35.3124 39.8919 34.7235 40.9402 33.6752C41.9885 32.6268 42.5775 31.205 42.5775 29.7224C42.5775 28.2399 41.9885 26.818 40.9402 25.7697C39.8919 24.7214 38.47 24.1324 36.9875 24.1324C35.5049 24.1324 34.0831 24.7214 33.0347 25.7697C31.9864 26.818 31.3975 28.2399 31.3975 29.7224C31.3975 31.205 31.9864 32.6268 33.0347 33.6752C34.0831 34.7235 35.5049 35.3124 36.9875 35.3124V35.3124Z" fill="#757575"/>
<path d="M2.04 100C1.90667 100 1.79333 99.9533 1.7 99.86C1.60667 99.7667 1.56 99.6533 1.56 99.52V86.5C1.56 86.3533 1.60667 86.2333 1.7 86.14C1.79333 86.0467 1.90667 86 2.04 86H7.22C8.83333 86 10.1067 86.3733 11.04 87.12C11.9733 87.8667 12.44 88.9533 12.44 90.38C12.44 91.3667 12.1933 92.1867 11.7 92.84C11.22 93.4933 10.5733 93.9667 9.76 94.26L12.68 99.36C12.72 99.44 12.74 99.5133 12.74 99.58C12.74 99.7 12.6933 99.8 12.6 99.88C12.52 99.96 12.4267 100 12.32 100H10.5C10.2733 100 10.1 99.94 9.98 99.82C9.86 99.7 9.76667 99.58 9.7 99.46L7.12 94.72H4.34V99.52C4.34 99.6533 4.29333 99.7667 4.2 99.86C4.12 99.9533 4.00667 100 3.86 100H2.04ZM4.34 92.46H7.16C7.97333 92.46 8.58 92.28 8.98 91.92C9.38 91.5467 9.58 91.0267 9.58 90.36C9.58 89.6933 9.38 89.1733 8.98 88.8C8.59333 88.4133 7.98667 88.22 7.16 88.22H4.34V92.46ZM19.1398 100.2C17.6598 100.2 16.4865 99.7733 15.6198 98.92C14.7532 98.0667 14.2865 96.8533 14.2198 95.28C14.2065 95.1467 14.1998 94.98 14.1998 94.78C14.1998 94.5667 14.2065 94.4 14.2198 94.28C14.2732 93.28 14.4998 92.4133 14.8998 91.68C15.3132 90.9467 15.8798 90.3867 16.5998 90C17.3198 89.6 18.1665 89.4 19.1398 89.4C20.2198 89.4 21.1265 89.6267 21.8598 90.08C22.5932 90.52 23.1465 91.14 23.5198 91.94C23.8932 92.7267 24.0798 93.64 24.0798 94.68V95.1C24.0798 95.2333 24.0332 95.3467 23.9398 95.44C23.8465 95.5333 23.7265 95.58 23.5798 95.58H16.9398C16.9398 95.58 16.9398 95.6 16.9398 95.64C16.9398 95.68 16.9398 95.7133 16.9398 95.74C16.9532 96.2067 17.0398 96.64 17.1998 97.04C17.3732 97.4267 17.6198 97.74 17.9398 97.98C18.2732 98.22 18.6665 98.34 19.1198 98.34C19.4932 98.34 19.8065 98.2867 20.0598 98.18C20.3132 98.06 20.5198 97.9267 20.6798 97.78C20.8398 97.6333 20.9532 97.5133 21.0198 97.42C21.1398 97.26 21.2332 97.1667 21.2998 97.14C21.3798 97.1 21.4932 97.08 21.6398 97.08H23.3598C23.4932 97.08 23.5998 97.12 23.6798 97.2C23.7732 97.28 23.8132 97.38 23.7998 97.5C23.7865 97.7133 23.6732 97.9733 23.4598 98.28C23.2598 98.5867 22.9665 98.8867 22.5798 99.18C22.1932 99.4733 21.7065 99.72 21.1198 99.92C20.5465 100.107 19.8865 100.2 19.1398 100.2ZM16.9398 93.9H21.3598V93.84C21.3598 93.32 21.2732 92.8667 21.0998 92.48C20.9265 92.0933 20.6732 91.7867 20.3398 91.56C20.0065 91.3333 19.6065 91.22 19.1398 91.22C18.6732 91.22 18.2732 91.3333 17.9398 91.56C17.6065 91.7867 17.3532 92.0933 17.1798 92.48C17.0198 92.8667 16.9398 93.32 16.9398 93.84V93.9ZM29.2228 100.2C28.5295 100.2 27.9028 100.067 27.3428 99.8C26.7828 99.52 26.3361 99.1533 26.0028 98.7C25.6828 98.2333 25.5228 97.7133 25.5228 97.14C25.5228 96.2067 25.8961 95.4667 26.6428 94.92C27.4028 94.36 28.4028 93.9867 29.6428 93.8L32.3828 93.4V92.98C32.3828 92.42 32.2428 91.9867 31.9628 91.68C31.6828 91.3733 31.2028 91.22 30.5228 91.22C30.0428 91.22 29.6495 91.32 29.3428 91.52C29.0495 91.7067 28.8295 91.96 28.6828 92.28C28.5761 92.4533 28.4228 92.54 28.2228 92.54H26.6428C26.4961 92.54 26.3828 92.5 26.3028 92.42C26.2361 92.34 26.2028 92.2333 26.2028 92.1C26.2161 91.8867 26.3028 91.6267 26.4628 91.32C26.6228 91.0133 26.8761 90.72 27.2228 90.44C27.5695 90.1467 28.0161 89.9 28.5628 89.7C29.1095 89.5 29.7695 89.4 30.5428 89.4C31.3828 89.4 32.0895 89.5067 32.6628 89.72C33.2495 89.92 33.7161 90.1933 34.0628 90.54C34.4095 90.8867 34.6628 91.2933 34.8228 91.76C34.9828 92.2267 35.0628 92.72 35.0628 93.24V99.52C35.0628 99.6533 35.0161 99.7667 34.9228 99.86C34.8295 99.9533 34.7161 100 34.5828 100H32.9628C32.8161 100 32.6961 99.9533 32.6028 99.86C32.5228 99.7667 32.4828 99.6533 32.4828 99.52V98.74C32.3095 98.9933 32.0761 99.2333 31.7828 99.46C31.4895 99.6733 31.1295 99.8533 30.7028 100C30.2895 100.133 29.7961 100.2 29.2228 100.2ZM29.9028 98.3C30.3695 98.3 30.7895 98.2 31.1628 98C31.5495 97.8 31.8495 97.4933 32.0628 97.08C32.2895 96.6533 32.4028 96.12 32.4028 95.48V95.06L30.4028 95.38C29.6161 95.5 29.0295 95.6933 28.6428 95.96C28.2561 96.2267 28.0628 96.5533 28.0628 96.94C28.0628 97.2333 28.1495 97.4867 28.3228 97.7C28.5095 97.9 28.7428 98.0533 29.0228 98.16C29.3028 98.2533 29.5961 98.3 29.9028 98.3ZM42.1286 100.2C41.1686 100.2 40.3219 100.02 39.5886 99.66C38.8686 99.3 38.3019 98.78 37.8886 98.1C37.4886 97.4067 37.2686 96.5733 37.2286 95.6C37.2153 95.4 37.2086 95.14 37.2086 94.82C37.2086 94.4867 37.2153 94.2133 37.2286 94C37.2686 93.0267 37.4886 92.2 37.8886 91.52C38.3019 90.8267 38.8686 90.3 39.5886 89.94C40.3219 89.58 41.1686 89.4 42.1286 89.4C42.9819 89.4 43.7086 89.52 44.3086 89.76C44.9086 90 45.4019 90.3 45.7886 90.66C46.1753 91.02 46.4619 91.4 46.6486 91.8C46.8486 92.1867 46.9553 92.54 46.9686 92.86C46.9819 93.0067 46.9353 93.1267 46.8286 93.22C46.7353 93.3 46.6219 93.34 46.4886 93.34H44.7286C44.5953 93.34 44.4886 93.3067 44.4086 93.24C44.3419 93.1733 44.2753 93.0733 44.2086 92.94C44.0086 92.4067 43.7419 92.0333 43.4086 91.82C43.0886 91.5933 42.6753 91.48 42.1686 91.48C41.5019 91.48 40.9686 91.6933 40.5686 92.12C40.1819 92.5333 39.9753 93.1933 39.9486 94.1C39.9219 94.6067 39.9219 95.0733 39.9486 95.5C39.9753 96.42 40.1819 97.0867 40.5686 97.5C40.9686 97.9133 41.5019 98.12 42.1686 98.12C42.6886 98.12 43.1086 98.0133 43.4286 97.8C43.7486 97.5733 44.0086 97.1933 44.2086 96.66C44.2753 96.5267 44.3419 96.4267 44.4086 96.36C44.4886 96.2933 44.5953 96.26 44.7286 96.26H46.4886C46.6219 96.26 46.7353 96.3067 46.8286 96.4C46.9353 96.48 46.9819 96.5933 46.9686 96.74C46.9553 96.98 46.8886 97.2533 46.7686 97.56C46.6619 97.8533 46.4819 98.16 46.2286 98.48C45.9886 98.7867 45.6819 99.0733 45.3086 99.34C44.9353 99.5933 44.4819 99.8 43.9486 99.96C43.4286 100.12 42.8219 100.2 42.1286 100.2ZM53.7544 100C52.9544 100 52.281 99.86 51.7344 99.58C51.1877 99.3 50.781 98.8867 50.5144 98.34C50.2477 97.78 50.1144 97.0867 50.1144 96.26V91.72H48.5344C48.401 91.72 48.2877 91.6733 48.1944 91.58C48.101 91.4867 48.0544 91.3733 48.0544 91.24V90.08C48.0544 89.9467 48.101 89.8333 48.1944 89.74C48.2877 89.6467 48.401 89.6 48.5344 89.6H50.1144V86.28C50.1144 86.1467 50.1544 86.0333 50.2344 85.94C50.3277 85.8467 50.4477 85.8 50.5944 85.8H52.2144C52.3477 85.8 52.461 85.8467 52.5544 85.94C52.6477 86.0333 52.6944 86.1467 52.6944 86.28V89.6H55.1944C55.3277 89.6 55.441 89.6467 55.5344 89.74C55.6277 89.8333 55.6744 89.9467 55.6744 90.08V91.24C55.6744 91.3733 55.6277 91.4867 55.5344 91.58C55.441 91.6733 55.3277 91.72 55.1944 91.72H52.6944V96.06C52.6944 96.6067 52.7877 97.0333 52.9744 97.34C53.1744 97.6467 53.5144 97.8 53.9944 97.8H55.3744C55.5077 97.8 55.621 97.8467 55.7144 97.94C55.8077 98.0333 55.8544 98.1467 55.8544 98.28V99.52C55.8544 99.6533 55.8077 99.7667 55.7144 99.86C55.621 99.9533 55.5077 100 55.3744 100H53.7544ZM55.9086 103.8C55.7753 103.8 55.6619 103.753 55.5686 103.66C55.4753 103.567 55.4286 103.453 55.4286 103.32V102.16C55.4286 102.027 55.4753 101.913 55.5686 101.82C55.6619 101.727 55.7753 101.68 55.9086 101.68H56.4286C56.8419 101.68 57.1486 101.607 57.3486 101.46C57.5486 101.313 57.6819 101.107 57.7486 100.84C57.8153 100.587 57.8486 100.3 57.8486 99.98V90.08C57.8486 89.9467 57.8953 89.8333 57.9886 89.74C58.0819 89.6467 58.1953 89.6 58.3286 89.6H60.0686C60.2019 89.6 60.3153 89.6467 60.4086 89.74C60.5019 89.8333 60.5486 89.9467 60.5486 90.08V100.02C60.5486 100.807 60.4019 101.48 60.1086 102.04C59.8286 102.6 59.4019 103.033 58.8286 103.34C58.2686 103.647 57.5486 103.8 56.6686 103.8H55.9086ZM58.2486 87.88C58.1019 87.88 57.9819 87.84 57.8886 87.76C57.7953 87.6667 57.7486 87.5467 57.7486 87.4V85.96C57.7486 85.8267 57.7953 85.7133 57.8886 85.62C57.9819 85.5267 58.1019 85.48 58.2486 85.48H60.1286C60.2753 85.48 60.3953 85.5267 60.4886 85.62C60.5819 85.7133 60.6286 85.8267 60.6286 85.96V87.4C60.6286 87.5467 60.5819 87.6667 60.4886 87.76C60.3953 87.84 60.2753 87.88 60.1286 87.88H58.2486ZM67.3889 100.2C66.5889 100.2 65.9022 100.107 65.3289 99.92C64.7689 99.7333 64.3089 99.5 63.9489 99.22C63.5889 98.94 63.3222 98.66 63.1489 98.38C62.9756 98.1 62.8822 97.8667 62.8689 97.68C62.8556 97.5333 62.8956 97.42 62.9889 97.34C63.0956 97.2467 63.2089 97.2 63.3289 97.2H64.9089C64.9622 97.2 65.0089 97.2067 65.0489 97.22C65.0889 97.2333 65.1422 97.2733 65.2089 97.34C65.3822 97.4867 65.5622 97.64 65.7489 97.8C65.9489 97.96 66.1822 98.1 66.4489 98.22C66.7156 98.3267 67.0489 98.38 67.4489 98.38C67.9689 98.38 68.4022 98.28 68.7489 98.08C69.1089 97.8667 69.2889 97.5667 69.2889 97.18C69.2889 96.9 69.2089 96.6733 69.0489 96.5C68.9022 96.3267 68.6222 96.1733 68.2089 96.04C67.7956 95.8933 67.2089 95.74 66.4489 95.58C65.7022 95.4067 65.0822 95.1867 64.5889 94.92C64.0956 94.6533 63.7289 94.32 63.4889 93.92C63.2489 93.52 63.1289 93.0533 63.1289 92.52C63.1289 92 63.2822 91.5067 63.5889 91.04C63.9089 90.56 64.3756 90.1667 64.9889 89.86C65.6156 89.5533 66.3889 89.4 67.3089 89.4C68.0289 89.4 68.6556 89.4933 69.1889 89.68C69.7222 89.8533 70.1622 90.0733 70.5089 90.34C70.8689 90.6067 71.1422 90.88 71.3289 91.16C71.5156 91.4267 71.6156 91.66 71.6289 91.86C71.6422 92.0067 71.6022 92.1267 71.5089 92.22C71.4156 92.3 71.3089 92.34 71.1889 92.34H69.7089C69.6422 92.34 69.5822 92.3267 69.5289 92.3C69.4756 92.2733 69.4222 92.24 69.3689 92.2C69.2222 92.0667 69.0622 91.9267 68.8889 91.78C68.7156 91.6333 68.5022 91.5067 68.2489 91.4C68.0089 91.28 67.6889 91.22 67.2889 91.22C66.7822 91.22 66.3956 91.3333 66.1289 91.56C65.8622 91.7733 65.7289 92.0467 65.7289 92.38C65.7289 92.6067 65.7889 92.8067 65.9089 92.98C66.0422 93.14 66.3022 93.2933 66.6889 93.44C67.0756 93.5867 67.6622 93.74 68.4489 93.9C69.3422 94.06 70.0489 94.3 70.5689 94.62C71.1022 94.9267 71.4756 95.2867 71.6889 95.7C71.9156 96.1 72.0289 96.5467 72.0289 97.04C72.0289 97.64 71.8489 98.18 71.4889 98.66C71.1422 99.14 70.6222 99.52 69.9289 99.8C69.2489 100.067 68.4022 100.2 67.3889 100.2Z" fill="#757575"/>
</svg>
