<svg width="62" height="62" viewBox="0 0 62 62" fill="none" xmlns="http://www.w3.org/2000/svg">
<path d="M62 31C62 48.1208 48.1208 62 31 62C13.8792 62 0 48.1208 0 31C0 13.8792 13.8792 0 31 0C48.1208 0 62 13.8792 62 31Z" fill="black"/>
<path d="M48 28.5C48 38.165 40.165 46 30.5 46C20.835 46 13 38.165 13 28.5C13 18.835 20.835 11 30.5 11C40.165 11 48 18.835 48 28.5Z" fill="white"/>
<path fill-rule="evenodd" clip-rule="evenodd" d="M30.5 11C20.8312 11 13 18.8313 13 28.5C13 36.2437 18.0094 42.7844 24.9656 45.1031C25.8406 45.2562 26.1688 44.7312 26.1688 44.2719C26.1688 43.8562 26.1469 42.4781 26.1469 41.0125C21.75 41.8219 20.6125 39.9406 20.2625 38.9562C20.0656 38.4531 19.2125 36.9 18.4688 36.4844C17.8562 36.1563 16.9812 35.3469 18.4469 35.325C19.825 35.3031 20.8094 36.5937 21.1375 37.1187C22.7125 39.7656 25.2281 39.0219 26.2344 38.5625C26.3875 37.425 26.8469 36.6594 27.35 36.2219C23.4563 35.7844 19.3875 34.275 19.3875 27.5812C19.3875 25.6781 20.0656 24.1031 21.1812 22.8781C21.0062 22.4406 20.3938 20.6469 21.3563 18.2406C21.3563 18.2406 22.8219 17.7812 26.1688 20.0344C27.5688 19.6406 29.0563 19.4438 30.5438 19.4438C32.0313 19.4438 33.5188 19.6406 34.9188 20.0344C38.2656 17.7594 39.7313 18.2406 39.7313 18.2406C40.6938 20.6469 40.0812 22.4406 39.9062 22.8781C41.0219 24.1031 41.7 25.6562 41.7 27.5812C41.7 34.2969 37.6094 35.7844 33.7156 36.2219C34.35 36.7687 34.8969 37.8187 34.8969 39.4594C34.8969 41.8 34.875 43.6812 34.875 44.2719C34.875 44.7312 35.2031 45.2781 36.0781 45.1031C39.5521 43.9302 42.5709 41.6975 44.7095 38.7191C46.8481 35.7407 47.999 32.1667 48 28.5C48 18.8313 40.1688 11 30.5 11Z" fill="black"/>
</svg>
