<svg width="62" height="62" viewBox="0 0 62 62" fill="none" xmlns="http://www.w3.org/2000/svg">
<circle cx="31" cy="31" r="31" fill="black"/>
<path d="M20.2669 23.4954C22.0291 23.4954 23.4577 22.0669 23.4577 20.3046C23.4577 18.5424 22.0291 17.1138 20.2669 17.1138C18.5046 17.1138 17.076 18.5424 17.076 20.3046C17.076 22.0669 18.5046 23.4954 20.2669 23.4954Z" fill="white"/>
<path d="M26.4706 25.9136V43.6163H31.9671V34.8619C31.9671 32.5519 32.4017 30.3148 35.2658 30.3148C38.0906 30.3148 38.1256 32.9559 38.1256 35.0077V43.6177H43.625V33.9096C43.625 29.1409 42.5983 25.4761 37.0246 25.4761C34.3485 25.4761 32.5548 26.9446 31.8213 28.3344H31.7469V25.9136H26.4706V25.9136ZM17.5135 25.9136H23.0188V43.6163H17.5135V25.9136Z" fill="white"/>
</svg>
